<?xml version="1.0" encoding="utf-8" standalone="no"?>
<!DOCTYPE svg PUBLIC "-//W3C//DTD SVG 1.1//EN"
  "http://www.w3.org/Graphics/SVG/1.1/DTD/svg11.dtd">
<svg xmlns:xlink="http://www.w3.org/1999/xlink" width="720pt" height="360pt" viewBox="0 0 720 360" xmlns="http://www.w3.org/2000/svg" version="1.1">
 <metadata>
  <rdf:RDF xmlns:dc="http://purl.org/dc/elements/1.1/" xmlns:cc="http://creativecommons.org/ns#" xmlns:rdf="http://www.w3.org/1999/02/22-rdf-syntax-ns#">
   <cc:Work>
    <dc:type rdf:resource="http://purl.org/dc/dcmitype/StillImage"/>
    <dc:date>2026-01-01T20:13:29.107917</dc:date>
    <dc:format>image/svg+xml</dc:format>
    <dc:creator>
     <cc:Agent>
      <dc:title>Matplotlib v3.6.3, https://matplotlib.org/</dc:title>
     </cc:Agent>
    </dc:creator>
   </cc:Work>
  </rdf:RDF>
 </metadata>
 <defs>
  <style type="text/css">*{stroke-linejoin: round; stroke-linecap: butt}</style>
 </defs>
 <g id="figure_1">
  <g id="patch_1">
   <path d="M 0 360 
L 720 360 
L 720 0 
L 0 0 
z
" style="fill: #ffffff"/>
  </g>
  <g id="axes_1">
   <g id="patch_2">
    <path d="M 90 320.4 
L 343.636364 320.4 
L 343.636364 43.2 
L 90 43.2 
z
" style="fill: #ffffff"/>
   </g>
   <g id="matplotlib.axis_1">
    <g id="xtick_1">
     <g id="line2d_1">
      <defs>
       <path id="mfe2204f90a" d="M 0 0 
L 0 3.5 
" style="stroke: #000000; stroke-width: 0.8"/>
      </defs>
      <g>
       <use xlink:href="#mfe2204f90a" x="101.528926" y="320.4" style="stroke: #000000; stroke-width: 0.8"/>
      </g>
     </g>
     <g id="text_1">
      <!-- 0 -->
      <g transform="translate(98.347676 334.998438) scale(0.1 -0.1)">
       <defs>
        <path id="DejaVuSans-30" d="M 2034 4250 
Q 1547 4250 1301 3770 
Q 1056 3291 1056 2328 
Q 1056 1369 1301 889 
Q 1547 409 2034 409 
Q 2525 409 2770 889 
Q 3016 1369 3016 2328 
Q 3016 3291 2770 3770 
Q 2525 4250 2034 4250 
z
M 2034 4750 
Q 2819 4750 3233 4129 
Q 3647 3509 3647 2328 
Q 3647 1150 3233 529 
Q 2819 -91 2034 -91 
Q 1250 -91 836 529 
Q 422 1150 422 2328 
Q 422 3509 836 4129 
Q 1250 4750 2034 4750 
z
" transform="scale(0.015625)"/>
       </defs>
       <use xlink:href="#DejaVuSans-30"/>
      </g>
     </g>
    </g>
    <g id="xtick_2">
     <g id="line2d_2">
      <g>
       <use xlink:href="#mfe2204f90a" x="137.669758" y="320.4" style="stroke: #000000; stroke-width: 0.8"/>
      </g>
     </g>
     <g id="text_2">
      <!-- 50 -->
      <g transform="translate(131.307258 334.998438) scale(0.1 -0.1)">
       <defs>
        <path id="DejaVuSans-35" d="M 691 4666 
L 3169 4666 
L 3169 4134 
L 1269 4134 
L 1269 2991 
Q 1406 3038 1543 3061 
Q 1681 3084 1819 3084 
Q 2600 3084 3056 2656 
Q 3513 2228 3513 1497 
Q 3513 744 3044 326 
Q 2575 -91 1722 -91 
Q 1428 -91 1123 -41 
Q 819 9 494 109 
L 494 744 
Q 775 591 1075 516 
Q 1375 441 1709 441 
Q 2250 441 2565 725 
Q 2881 1009 2881 1497 
Q 2881 1984 2565 2268 
Q 2250 2553 1709 2553 
Q 1456 2553 1204 2497 
Q 953 2441 691 2322 
L 691 4666 
z
" transform="scale(0.015625)"/>
       </defs>
       <use xlink:href="#DejaVuSans-35"/>
       <use xlink:href="#DejaVuSans-30" x="63.623047"/>
      </g>
     </g>
    </g>
    <g id="xtick_3">
     <g id="line2d_3">
      <g>
       <use xlink:href="#mfe2204f90a" x="173.810591" y="320.4" style="stroke: #000000; stroke-width: 0.8"/>
      </g>
     </g>
     <g id="text_3">
      <!-- 100 -->
      <g transform="translate(164.266841 334.998438) scale(0.1 -0.1)">
       <defs>
        <path id="DejaVuSans-31" d="M 794 531 
L 1825 531 
L 1825 4091 
L 703 3866 
L 703 4441 
L 1819 4666 
L 2450 4666 
L 2450 531 
L 3481 531 
L 3481 0 
L 794 0 
L 794 531 
z
" transform="scale(0.015625)"/>
       </defs>
       <use xlink:href="#DejaVuSans-31"/>
       <use xlink:href="#DejaVuSans-30" x="63.623047"/>
       <use xlink:href="#DejaVuSans-30" x="127.246094"/>
      </g>
     </g>
    </g>
    <g id="xtick_4">
     <g id="line2d_4">
      <g>
       <use xlink:href="#mfe2204f90a" x="209.951424" y="320.4" style="stroke: #000000; stroke-width: 0.8"/>
      </g>
     </g>
     <g id="text_4">
      <!-- 150 -->
      <g transform="translate(200.407674 334.998438) scale(0.1 -0.1)">
       <use xlink:href="#DejaVuSans-31"/>
       <use xlink:href="#DejaVuSans-35" x="63.623047"/>
       <use xlink:href="#DejaVuSans-30" x="127.246094"/>
      </g>
     </g>
    </g>
    <g id="xtick_5">
     <g id="line2d_5">
      <g>
       <use xlink:href="#mfe2204f90a" x="246.092256" y="320.4" style="stroke: #000000; stroke-width: 0.8"/>
      </g>
     </g>
     <g id="text_5">
      <!-- 200 -->
      <g transform="translate(236.548506 334.998438) scale(0.1 -0.1)">
       <defs>
        <path id="DejaVuSans-32" d="M 1228 531 
L 3431 531 
L 3431 0 
L 469 0 
L 469 531 
Q 828 903 1448 1529 
Q 2069 2156 2228 2338 
Q 2531 2678 2651 2914 
Q 2772 3150 2772 3378 
Q 2772 3750 2511 3984 
Q 2250 4219 1831 4219 
Q 1534 4219 1204 4116 
Q 875 4013 500 3803 
L 500 4441 
Q 881 4594 1212 4672 
Q 1544 4750 1819 4750 
Q 2544 4750 2975 4387 
Q 3406 4025 3406 3419 
Q 3406 3131 3298 2873 
Q 3191 2616 2906 2266 
Q 2828 2175 2409 1742 
Q 1991 1309 1228 531 
z
" transform="scale(0.015625)"/>
       </defs>
       <use xlink:href="#DejaVuSans-32"/>
       <use xlink:href="#DejaVuSans-30" x="63.623047"/>
       <use xlink:href="#DejaVuSans-30" x="127.246094"/>
      </g>
     </g>
    </g>
    <g id="xtick_6">
     <g id="line2d_6">
      <g>
       <use xlink:href="#mfe2204f90a" x="282.233089" y="320.4" style="stroke: #000000; stroke-width: 0.8"/>
      </g>
     </g>
     <g id="text_6">
      <!-- 250 -->
      <g transform="translate(272.689339 334.998438) scale(0.1 -0.1)">
       <use xlink:href="#DejaVuSans-32"/>
       <use xlink:href="#DejaVuSans-35" x="63.623047"/>
       <use xlink:href="#DejaVuSans-30" x="127.246094"/>
      </g>
     </g>
    </g>
    <g id="xtick_7">
     <g id="line2d_7">
      <g>
       <use xlink:href="#mfe2204f90a" x="318.373922" y="320.4" style="stroke: #000000; stroke-width: 0.8"/>
      </g>
     </g>
     <g id="text_7">
      <!-- 300 -->
      <g transform="translate(308.830172 334.998438) scale(0.1 -0.1)">
       <defs>
        <path id="DejaVuSans-33" d="M 2597 2516 
Q 3050 2419 3304 2112 
Q 3559 1806 3559 1356 
Q 3559 666 3084 287 
Q 2609 -91 1734 -91 
Q 1441 -91 1130 -33 
Q 819 25 488 141 
L 488 750 
Q 750 597 1062 519 
Q 1375 441 1716 441 
Q 2309 441 2620 675 
Q 2931 909 2931 1356 
Q 2931 1769 2642 2001 
Q 2353 2234 1838 2234 
L 1294 2234 
L 1294 2753 
L 1863 2753 
Q 2328 2753 2575 2939 
Q 2822 3125 2822 3475 
Q 2822 3834 2567 4026 
Q 2313 4219 1838 4219 
Q 1578 4219 1281 4162 
Q 984 4106 628 3988 
L 628 4550 
Q 988 4650 1302 4700 
Q 1616 4750 1894 4750 
Q 2613 4750 3031 4423 
Q 3450 4097 3450 3541 
Q 3450 3153 3228 2886 
Q 3006 2619 2597 2516 
z
" transform="scale(0.015625)"/>
       </defs>
       <use xlink:href="#DejaVuSans-33"/>
       <use xlink:href="#DejaVuSans-30" x="63.623047"/>
       <use xlink:href="#DejaVuSans-30" x="127.246094"/>
      </g>
     </g>
    </g>
    <g id="text_8">
     <!-- M -->
     <g transform="translate(212.504119 348.676562) scale(0.1 -0.1)">
      <defs>
       <path id="DejaVuSans-4d" d="M 628 4666 
L 1569 4666 
L 2759 1491 
L 3956 4666 
L 4897 4666 
L 4897 0 
L 4281 0 
L 4281 4097 
L 3078 897 
L 2444 897 
L 1241 4097 
L 1241 0 
L 628 0 
L 628 4666 
z
" transform="scale(0.015625)"/>
      </defs>
      <use xlink:href="#DejaVuSans-4d"/>
     </g>
    </g>
   </g>
   <g id="matplotlib.axis_2">
    <g id="ytick_1">
     <g id="line2d_8">
      <defs>
       <path id="m6b32462137" d="M 0 0 
L -3.5 0 
" style="stroke: #000000; stroke-width: 0.8"/>
      </defs>
      <g>
       <use xlink:href="#m6b32462137" x="90" y="315.460593" style="stroke: #000000; stroke-width: 0.8"/>
      </g>
     </g>
     <g id="text_9">
      <!-- $\mathdefault{10^{-6}}$ -->
      <g transform="translate(59.5 319.259812) scale(0.1 -0.1)">
       <defs>
        <path id="DejaVuSans-2212" d="M 678 2272 
L 4684 2272 
L 4684 1741 
L 678 1741 
L 678 2272 
z
" transform="scale(0.015625)"/>
        <path id="DejaVuSans-36" d="M 2113 2584 
Q 1688 2584 1439 2293 
Q 1191 2003 1191 1497 
Q 1191 994 1439 701 
Q 1688 409 2113 409 
Q 2538 409 2786 701 
Q 3034 994 3034 1497 
Q 3034 2003 2786 2293 
Q 2538 2584 2113 2584 
z
M 3366 4563 
L 3366 3988 
Q 3128 4100 2886 4159 
Q 2644 4219 2406 4219 
Q 1781 4219 1451 3797 
Q 1122 3375 1075 2522 
Q 1259 2794 1537 2939 
Q 1816 3084 2150 3084 
Q 2853 3084 3261 2657 
Q 3669 2231 3669 1497 
Q 3669 778 3244 343 
Q 2819 -91 2113 -91 
Q 1303 -91 875 529 
Q 447 1150 447 2328 
Q 447 3434 972 4092 
Q 1497 4750 2381 4750 
Q 2619 4750 2861 4703 
Q 3103 4656 3366 4563 
z
" transform="scale(0.015625)"/>
       </defs>
       <use xlink:href="#DejaVuSans-31" transform="translate(0 0.765625)"/>
       <use xlink:href="#DejaVuSans-30" transform="translate(63.623047 0.765625)"/>
       <use xlink:href="#DejaVuSans-2212" transform="translate(128.203125 39.046875) scale(0.7)"/>
       <use xlink:href="#DejaVuSans-36" transform="translate(186.855469 39.046875) scale(0.7)"/>
      </g>
     </g>
    </g>
    <g id="ytick_2">
     <g id="line2d_9">
      <g>
       <use xlink:href="#m6b32462137" x="90" y="269.45138" style="stroke: #000000; stroke-width: 0.8"/>
      </g>
     </g>
     <g id="text_10">
      <!-- $\mathdefault{10^{-5}}$ -->
      <g transform="translate(59.5 273.250599) scale(0.1 -0.1)">
       <use xlink:href="#DejaVuSans-31" transform="translate(0 0.684375)"/>
       <use xlink:href="#DejaVuSans-30" transform="translate(63.623047 0.684375)"/>
       <use xlink:href="#DejaVuSans-2212" transform="translate(128.203125 38.965625) scale(0.7)"/>
       <use xlink:href="#DejaVuSans-35" transform="translate(186.855469 38.965625) scale(0.7)"/>
      </g>
     </g>
    </g>
    <g id="ytick_3">
     <g id="line2d_10">
      <g>
       <use xlink:href="#m6b32462137" x="90" y="223.442166" style="stroke: #000000; stroke-width: 0.8"/>
      </g>
     </g>
     <g id="text_11">
      <!-- $\mathdefault{10^{-4}}$ -->
      <g transform="translate(59.5 227.241385) scale(0.1 -0.1)">
       <defs>
        <path id="DejaVuSans-34" d="M 2419 4116 
L 825 1625 
L 2419 1625 
L 2419 4116 
z
M 2253 4666 
L 3047 4666 
L 3047 1625 
L 3713 1625 
L 3713 1100 
L 3047 1100 
L 3047 0 
L 2419 0 
L 2419 1100 
L 313 1100 
L 313 1709 
L 2253 4666 
z
" transform="scale(0.015625)"/>
       </defs>
       <use xlink:href="#DejaVuSans-31" transform="translate(0 0.684375)"/>
       <use xlink:href="#DejaVuSans-30" transform="translate(63.623047 0.684375)"/>
       <use xlink:href="#DejaVuSans-2212" transform="translate(128.203125 38.965625) scale(0.7)"/>
       <use xlink:href="#DejaVuSans-34" transform="translate(186.855469 38.965625) scale(0.7)"/>
      </g>
     </g>
    </g>
    <g id="ytick_4">
     <g id="line2d_11">
      <g>
       <use xlink:href="#m6b32462137" x="90" y="177.432952" style="stroke: #000000; stroke-width: 0.8"/>
      </g>
     </g>
     <g id="text_12">
      <!-- $\mathdefault{10^{-3}}$ -->
      <g transform="translate(59.5 181.232171) scale(0.1 -0.1)">
       <use xlink:href="#DejaVuSans-31" transform="translate(0 0.765625)"/>
       <use xlink:href="#DejaVuSans-30" transform="translate(63.623047 0.765625)"/>
       <use xlink:href="#DejaVuSans-2212" transform="translate(128.203125 39.046875) scale(0.7)"/>
       <use xlink:href="#DejaVuSans-33" transform="translate(186.855469 39.046875) scale(0.7)"/>
      </g>
     </g>
    </g>
    <g id="ytick_5">
     <g id="line2d_12">
      <g>
       <use xlink:href="#m6b32462137" x="90" y="131.423739" style="stroke: #000000; stroke-width: 0.8"/>
      </g>
     </g>
     <g id="text_13">
      <!-- $\mathdefault{10^{-2}}$ -->
      <g transform="translate(59.5 135.222957) scale(0.1 -0.1)">
       <use xlink:href="#DejaVuSans-31" transform="translate(0 0.765625)"/>
       <use xlink:href="#DejaVuSans-30" transform="translate(63.623047 0.765625)"/>
       <use xlink:href="#DejaVuSans-2212" transform="translate(128.203125 39.046875) scale(0.7)"/>
       <use xlink:href="#DejaVuSans-32" transform="translate(186.855469 39.046875) scale(0.7)"/>
      </g>
     </g>
    </g>
    <g id="ytick_6">
     <g id="line2d_13">
      <g>
       <use xlink:href="#m6b32462137" x="90" y="85.414525" style="stroke: #000000; stroke-width: 0.8"/>
      </g>
     </g>
     <g id="text_14">
      <!-- $\mathdefault{10^{-1}}$ -->
      <g transform="translate(59.5 89.213744) scale(0.1 -0.1)">
       <use xlink:href="#DejaVuSans-31" transform="translate(0 0.684375)"/>
       <use xlink:href="#DejaVuSans-30" transform="translate(63.623047 0.684375)"/>
       <use xlink:href="#DejaVuSans-2212" transform="translate(128.203125 38.965625) scale(0.7)"/>
       <use xlink:href="#DejaVuSans-31" transform="translate(186.855469 38.965625) scale(0.7)"/>
      </g>
     </g>
    </g>
    <g id="ytick_7">
     <g id="line2d_14">
      <defs>
       <path id="mf24a4497b6" d="M 0 0 
L -2 0 
" style="stroke: #000000; stroke-width: 0.6"/>
      </defs>
      <g>
       <use xlink:href="#mf24a4497b6" x="90" y="319.919347" style="stroke: #000000; stroke-width: 0.6"/>
      </g>
     </g>
    </g>
    <g id="ytick_8">
     <g id="line2d_15">
      <g>
       <use xlink:href="#mf24a4497b6" x="90" y="317.56586" style="stroke: #000000; stroke-width: 0.6"/>
      </g>
     </g>
    </g>
    <g id="ytick_9">
     <g id="line2d_16">
      <g>
       <use xlink:href="#mf24a4497b6" x="90" y="301.61044" style="stroke: #000000; stroke-width: 0.6"/>
      </g>
     </g>
    </g>
    <g id="ytick_10">
     <g id="line2d_17">
      <g>
       <use xlink:href="#mf24a4497b6" x="90" y="293.50862" style="stroke: #000000; stroke-width: 0.6"/>
      </g>
     </g>
    </g>
    <g id="ytick_11">
     <g id="line2d_18">
      <g>
       <use xlink:href="#mf24a4497b6" x="90" y="287.760287" style="stroke: #000000; stroke-width: 0.6"/>
      </g>
     </g>
    </g>
    <g id="ytick_12">
     <g id="line2d_19">
      <g>
       <use xlink:href="#mf24a4497b6" x="90" y="283.301533" style="stroke: #000000; stroke-width: 0.6"/>
      </g>
     </g>
    </g>
    <g id="ytick_13">
     <g id="line2d_20">
      <g>
       <use xlink:href="#mf24a4497b6" x="90" y="279.658466" style="stroke: #000000; stroke-width: 0.6"/>
      </g>
     </g>
    </g>
    <g id="ytick_14">
     <g id="line2d_21">
      <g>
       <use xlink:href="#mf24a4497b6" x="90" y="276.578297" style="stroke: #000000; stroke-width: 0.6"/>
      </g>
     </g>
    </g>
    <g id="ytick_15">
     <g id="line2d_22">
      <g>
       <use xlink:href="#mf24a4497b6" x="90" y="273.910133" style="stroke: #000000; stroke-width: 0.6"/>
      </g>
     </g>
    </g>
    <g id="ytick_16">
     <g id="line2d_23">
      <g>
       <use xlink:href="#mf24a4497b6" x="90" y="271.556646" style="stroke: #000000; stroke-width: 0.6"/>
      </g>
     </g>
    </g>
    <g id="ytick_17">
     <g id="line2d_24">
      <g>
       <use xlink:href="#mf24a4497b6" x="90" y="255.601226" style="stroke: #000000; stroke-width: 0.6"/>
      </g>
     </g>
    </g>
    <g id="ytick_18">
     <g id="line2d_25">
      <g>
       <use xlink:href="#mf24a4497b6" x="90" y="247.499406" style="stroke: #000000; stroke-width: 0.6"/>
      </g>
     </g>
    </g>
    <g id="ytick_19">
     <g id="line2d_26">
      <g>
       <use xlink:href="#mf24a4497b6" x="90" y="241.751073" style="stroke: #000000; stroke-width: 0.6"/>
      </g>
     </g>
    </g>
    <g id="ytick_20">
     <g id="line2d_27">
      <g>
       <use xlink:href="#mf24a4497b6" x="90" y="237.292319" style="stroke: #000000; stroke-width: 0.6"/>
      </g>
     </g>
    </g>
    <g id="ytick_21">
     <g id="line2d_28">
      <g>
       <use xlink:href="#mf24a4497b6" x="90" y="233.649253" style="stroke: #000000; stroke-width: 0.6"/>
      </g>
     </g>
    </g>
    <g id="ytick_22">
     <g id="line2d_29">
      <g>
       <use xlink:href="#mf24a4497b6" x="90" y="230.569083" style="stroke: #000000; stroke-width: 0.6"/>
      </g>
     </g>
    </g>
    <g id="ytick_23">
     <g id="line2d_30">
      <g>
       <use xlink:href="#mf24a4497b6" x="90" y="227.90092" style="stroke: #000000; stroke-width: 0.6"/>
      </g>
     </g>
    </g>
    <g id="ytick_24">
     <g id="line2d_31">
      <g>
       <use xlink:href="#mf24a4497b6" x="90" y="225.547432" style="stroke: #000000; stroke-width: 0.6"/>
      </g>
     </g>
    </g>
    <g id="ytick_25">
     <g id="line2d_32">
      <g>
       <use xlink:href="#mf24a4497b6" x="90" y="209.592013" style="stroke: #000000; stroke-width: 0.6"/>
      </g>
     </g>
    </g>
    <g id="ytick_26">
     <g id="line2d_33">
      <g>
       <use xlink:href="#mf24a4497b6" x="90" y="201.490192" style="stroke: #000000; stroke-width: 0.6"/>
      </g>
     </g>
    </g>
    <g id="ytick_27">
     <g id="line2d_34">
      <g>
       <use xlink:href="#mf24a4497b6" x="90" y="195.741859" style="stroke: #000000; stroke-width: 0.6"/>
      </g>
     </g>
    </g>
    <g id="ytick_28">
     <g id="line2d_35">
      <g>
       <use xlink:href="#mf24a4497b6" x="90" y="191.283106" style="stroke: #000000; stroke-width: 0.6"/>
      </g>
     </g>
    </g>
    <g id="ytick_29">
     <g id="line2d_36">
      <g>
       <use xlink:href="#mf24a4497b6" x="90" y="187.640039" style="stroke: #000000; stroke-width: 0.6"/>
      </g>
     </g>
    </g>
    <g id="ytick_30">
     <g id="line2d_37">
      <g>
       <use xlink:href="#mf24a4497b6" x="90" y="184.55987" style="stroke: #000000; stroke-width: 0.6"/>
      </g>
     </g>
    </g>
    <g id="ytick_31">
     <g id="line2d_38">
      <g>
       <use xlink:href="#mf24a4497b6" x="90" y="181.891706" style="stroke: #000000; stroke-width: 0.6"/>
      </g>
     </g>
    </g>
    <g id="ytick_32">
     <g id="line2d_39">
      <g>
       <use xlink:href="#mf24a4497b6" x="90" y="179.538218" style="stroke: #000000; stroke-width: 0.6"/>
      </g>
     </g>
    </g>
    <g id="ytick_33">
     <g id="line2d_40">
      <g>
       <use xlink:href="#mf24a4497b6" x="90" y="163.582799" style="stroke: #000000; stroke-width: 0.6"/>
      </g>
     </g>
    </g>
    <g id="ytick_34">
     <g id="line2d_41">
      <g>
       <use xlink:href="#mf24a4497b6" x="90" y="155.480979" style="stroke: #000000; stroke-width: 0.6"/>
      </g>
     </g>
    </g>
    <g id="ytick_35">
     <g id="line2d_42">
      <g>
       <use xlink:href="#mf24a4497b6" x="90" y="149.732646" style="stroke: #000000; stroke-width: 0.6"/>
      </g>
     </g>
    </g>
    <g id="ytick_36">
     <g id="line2d_43">
      <g>
       <use xlink:href="#mf24a4497b6" x="90" y="145.273892" style="stroke: #000000; stroke-width: 0.6"/>
      </g>
     </g>
    </g>
    <g id="ytick_37">
     <g id="line2d_44">
      <g>
       <use xlink:href="#mf24a4497b6" x="90" y="141.630825" style="stroke: #000000; stroke-width: 0.6"/>
      </g>
     </g>
    </g>
    <g id="ytick_38">
     <g id="line2d_45">
      <g>
       <use xlink:href="#mf24a4497b6" x="90" y="138.550656" style="stroke: #000000; stroke-width: 0.6"/>
      </g>
     </g>
    </g>
    <g id="ytick_39">
     <g id="line2d_46">
      <g>
       <use xlink:href="#mf24a4497b6" x="90" y="135.882492" style="stroke: #000000; stroke-width: 0.6"/>
      </g>
     </g>
    </g>
    <g id="ytick_40">
     <g id="line2d_47">
      <g>
       <use xlink:href="#mf24a4497b6" x="90" y="133.529005" style="stroke: #000000; stroke-width: 0.6"/>
      </g>
     </g>
    </g>
    <g id="ytick_41">
     <g id="line2d_48">
      <g>
       <use xlink:href="#mf24a4497b6" x="90" y="117.573585" style="stroke: #000000; stroke-width: 0.6"/>
      </g>
     </g>
    </g>
    <g id="ytick_42">
     <g id="line2d_49">
      <g>
       <use xlink:href="#mf24a4497b6" x="90" y="109.471765" style="stroke: #000000; stroke-width: 0.6"/>
      </g>
     </g>
    </g>
    <g id="ytick_43">
     <g id="line2d_50">
      <g>
       <use xlink:href="#mf24a4497b6" x="90" y="103.723432" style="stroke: #000000; stroke-width: 0.6"/>
      </g>
     </g>
    </g>
    <g id="ytick_44">
     <g id="line2d_51">
      <g>
       <use xlink:href="#mf24a4497b6" x="90" y="99.264678" style="stroke: #000000; stroke-width: 0.6"/>
      </g>
     </g>
    </g>
    <g id="ytick_45">
     <g id="line2d_52">
      <g>
       <use xlink:href="#mf24a4497b6" x="90" y="95.621611" style="stroke: #000000; stroke-width: 0.6"/>
      </g>
     </g>
    </g>
    <g id="ytick_46">
     <g id="line2d_53">
      <g>
       <use xlink:href="#mf24a4497b6" x="90" y="92.541442" style="stroke: #000000; stroke-width: 0.6"/>
      </g>
     </g>
    </g>
    <g id="ytick_47">
     <g id="line2d_54">
      <g>
       <use xlink:href="#mf24a4497b6" x="90" y="89.873278" style="stroke: #000000; stroke-width: 0.6"/>
      </g>
     </g>
    </g>
    <g id="ytick_48">
     <g id="line2d_55">
      <g>
       <use xlink:href="#mf24a4497b6" x="90" y="87.519791" style="stroke: #000000; stroke-width: 0.6"/>
      </g>
     </g>
    </g>
    <g id="ytick_49">
     <g id="line2d_56">
      <g>
       <use xlink:href="#mf24a4497b6" x="90" y="71.564371" style="stroke: #000000; stroke-width: 0.6"/>
      </g>
     </g>
    </g>
    <g id="ytick_50">
     <g id="line2d_57">
      <g>
       <use xlink:href="#mf24a4497b6" x="90" y="63.462551" style="stroke: #000000; stroke-width: 0.6"/>
      </g>
     </g>
    </g>
    <g id="ytick_51">
     <g id="line2d_58">
      <g>
       <use xlink:href="#mf24a4497b6" x="90" y="57.714218" style="stroke: #000000; stroke-width: 0.6"/>
      </g>
     </g>
    </g>
    <g id="ytick_52">
     <g id="line2d_59">
      <g>
       <use xlink:href="#mf24a4497b6" x="90" y="53.255465" style="stroke: #000000; stroke-width: 0.6"/>
      </g>
     </g>
    </g>
    <g id="ytick_53">
     <g id="line2d_60">
      <g>
       <use xlink:href="#mf24a4497b6" x="90" y="49.612398" style="stroke: #000000; stroke-width: 0.6"/>
      </g>
     </g>
    </g>
    <g id="ytick_54">
     <g id="line2d_61">
      <g>
       <use xlink:href="#mf24a4497b6" x="90" y="46.532229" style="stroke: #000000; stroke-width: 0.6"/>
      </g>
     </g>
    </g>
    <g id="ytick_55">
     <g id="line2d_62">
      <g>
       <use xlink:href="#mf24a4497b6" x="90" y="43.864065" style="stroke: #000000; stroke-width: 0.6"/>
      </g>
     </g>
    </g>
   </g>
   <g id="line2d_63">
    <path d="M 101.528926 87.18855 
L 102.251742 64.953288 
L 102.974559 69.174225 
L 103.697376 108.431734 
L 104.420192 73.652153 
L 105.143009 114.200213 
L 105.865826 107.650136 
L 106.588642 73.685731 
L 107.311459 77.423957 
L 108.034275 83.099789 
L 108.757092 97.129791 
L 109.479909 70.957302 
L 110.202725 75.750484 
L 110.925542 64.813436 
L 111.648359 72.152886 
L 112.371175 65.707787 
L 113.093992 77.705716 
L 113.816809 82.034289 
L 114.539625 84.853761 
L 115.262442 84.432462 
L 115.985259 59.319087 
L 116.708075 70.710476 
L 117.430892 76.958711 
L 118.153709 68.796208 
L 118.876525 80.054924 
L 119.599342 78.637093 
L 120.322159 65.660791 
L 121.044975 77.69456 
L 121.767792 76.351939 
L 122.490609 63.905735 
L 123.213425 64.827189 
L 124.659059 84.248136 
L 125.381875 98.49204 
L 126.104692 67.002983 
L 126.827508 75.86657 
L 127.550325 70.13061 
L 128.273142 81.295553 
L 128.995958 70.471294 
L 129.718775 68.6651 
L 130.441592 84.966747 
L 131.164408 67.362654 
L 131.887225 78.766775 
L 132.610042 77.282852 
L 133.332858 70.440392 
L 134.055675 102.764503 
L 134.778492 74.315776 
L 135.501308 67.71419 
L 136.224125 91.870841 
L 136.946942 88.963405 
L 137.669758 64.106849 
L 138.392575 105.73137 
L 139.115392 78.676375 
L 139.838208 130.775528 
L 140.561025 74.213958 
L 141.283842 81.800003 
L 142.006658 99.955112 
L 142.729475 70.803928 
L 143.452292 65.024635 
L 144.175108 67.038481 
L 144.897925 83.983882 
L 145.620741 118.257903 
L 146.343558 83.805724 
L 147.066375 76.71386 
L 147.789191 80.062588 
L 148.512008 75.539506 
L 149.234825 60.368171 
L 149.957641 71.550948 
L 150.680458 80.328297 
L 151.403275 77.89331 
L 152.126091 104.244693 
L 152.848908 91.280964 
L 153.571725 86.725804 
L 154.294541 63.650303 
L 155.017358 83.18691 
L 155.740175 67.483597 
L 156.462991 76.234682 
L 157.185808 80.316127 
L 157.908625 89.249184 
L 158.631441 80.493442 
L 159.354258 75.000699 
L 160.077075 114.453691 
L 160.799891 81.946851 
L 161.522708 92.413306 
L 162.245524 91.221622 
L 162.968341 74.004517 
L 163.691158 88.889143 
L 165.136791 63.382732 
L 165.859608 79.149941 
L 166.582424 70.771153 
L 167.305241 73.411638 
L 168.028058 70.520671 
L 168.750874 104.395525 
L 169.473691 81.185222 
L 170.196508 117.883668 
L 170.919324 67.368052 
L 171.642141 73.682811 
L 172.364958 86.469513 
L 173.087774 84.932648 
L 173.810591 85.900447 
L 174.533408 104.239978 
L 175.256224 87.281686 
L 175.979041 98.683263 
L 176.701858 95.336211 
L 177.424674 71.245642 
L 178.147491 69.922788 
L 178.870308 75.21715 
L 179.593124 79.150546 
L 180.315941 85.996572 
L 181.038757 99.67445 
L 181.761574 79.873522 
L 182.484391 76.693339 
L 183.207207 75.012745 
L 183.930024 90.075456 
L 184.652841 82.68616 
L 185.375657 109.14166 
L 186.098474 75.499361 
L 186.821291 62.06219 
L 187.544107 89.586611 
L 188.266924 72.763677 
L 188.989741 72.263345 
L 189.712557 82.753436 
L 190.435374 90.290088 
L 191.158191 84.969693 
L 191.881007 77.47881 
L 192.603824 78.254535 
L 193.326641 76.466987 
L 194.049457 102.741419 
L 194.772274 76.402215 
L 195.495091 83.285564 
L 196.217907 78.845455 
L 196.940724 92.56646 
L 197.663541 103.021098 
L 198.386357 102.191051 
L 199.109174 74.91429 
L 199.83199 101.500336 
L 200.554807 63.584111 
L 201.277624 97.497502 
L 202.00044 89.709614 
L 203.446074 66.32085 
L 204.16889 121.763108 
L 204.891707 82.494262 
L 205.614524 80.282942 
L 206.33734 75.549557 
L 207.060157 72.896303 
L 207.782974 102.695793 
L 208.50579 68.4128 
L 209.228607 71.655344 
L 209.951424 65.217426 
L 210.67424 86.755702 
L 211.397057 66.277695 
L 212.119874 74.202894 
L 212.84269 84.258813 
L 213.565507 70.986373 
L 214.288324 71.922757 
L 215.01114 55.805472 
L 216.456773 86.996985 
L 217.17959 72.313809 
L 217.902407 96.127316 
L 218.625223 68.702357 
L 219.34804 78.080845 
L 220.070857 57.900017 
L 220.793673 91.88978 
L 221.51649 70.088711 
L 222.962123 88.510494 
L 223.68494 80.434353 
L 224.407757 90.631534 
L 225.130573 64.137837 
L 225.85339 73.654552 
L 226.576207 70.912132 
L 227.299023 79.137106 
L 228.02184 70.500428 
L 228.744657 74.890525 
L 229.467473 57.699867 
L 230.19029 85.15639 
L 230.913107 81.46101 
L 231.635923 87.421365 
L 232.35874 107.119268 
L 233.081557 77.205178 
L 233.804373 56.030896 
L 234.52719 69.56181 
L 235.250006 66.629043 
L 235.972823 74.919662 
L 236.69564 88.06011 
L 237.418456 76.785912 
L 238.141273 71.734871 
L 238.86409 82.047656 
L 239.586906 72.201798 
L 240.309723 78.092885 
L 241.03254 105.361903 
L 241.755356 89.246568 
L 242.478173 66.129343 
L 243.20099 95.548954 
L 243.923806 76.848624 
L 244.646623 97.852995 
L 245.36944 66.1844 
L 246.092256 89.845897 
L 246.815073 63.903964 
L 247.53789 74.532607 
L 248.983523 99.611816 
L 249.70634 70.40462 
L 250.429156 78.011426 
L 251.151973 72.756363 
L 251.87479 87.427681 
L 252.597606 90.634076 
L 253.320423 83.873635 
L 254.043239 74.116989 
L 254.766056 61.692967 
L 255.488873 78.631607 
L 256.211689 82.833243 
L 256.934506 65.441787 
L 257.657323 96.229268 
L 258.380139 68.479078 
L 259.102956 69.31007 
L 259.825773 86.831677 
L 260.548589 78.216553 
L 261.271406 65.212745 
L 261.994223 101.501217 
L 262.717039 77.851888 
L 263.439856 70.540235 
L 264.162673 83.220489 
L 264.885489 80.747068 
L 265.608306 70.703346 
L 266.331123 104.327725 
L 267.053939 70.777022 
L 267.776756 111.832068 
L 268.499573 74.542708 
L 269.222389 90.433082 
L 269.945206 72.152527 
L 270.668022 88.329806 
L 271.390839 74.571397 
L 272.113656 94.079068 
L 272.836472 85.201769 
L 273.559289 88.576271 
L 274.282106 71.128344 
L 275.004922 81.755688 
L 275.727739 97.126222 
L 276.450556 83.718143 
L 277.173372 80.573393 
L 277.896189 85.531532 
L 278.619006 66.417321 
L 279.341822 79.485937 
L 280.064639 67.946825 
L 280.787456 71.736661 
L 281.510272 72.644314 
L 282.233089 75.090829 
L 282.955906 82.079808 
L 283.678722 74.139882 
L 284.401539 80.403083 
L 285.124356 70.131718 
L 285.847172 73.033605 
L 286.569989 85.973088 
L 287.292806 71.599859 
L 288.015622 67.737848 
L 288.738439 75.347962 
L 289.461255 62.822922 
L 290.184072 61.639547 
L 290.906889 68.176007 
L 291.629705 85.585879 
L 292.352522 79.948121 
L 293.075339 69.664914 
L 293.798155 66.257045 
L 294.520972 74.480932 
L 295.243789 80.619931 
L 295.966605 61.223781 
L 296.689422 60.887534 
L 297.412239 76.781835 
L 298.135055 99.805801 
L 298.857872 78.933497 
L 299.580689 73.506995 
L 301.026322 90.639353 
L 301.749139 85.554763 
L 302.471955 73.221681 
L 303.194772 86.19792 
L 303.917589 95.029352 
L 304.640405 118.020018 
L 305.363222 83.176637 
L 306.086038 95.628715 
L 306.808855 76.563609 
L 307.531672 67.648587 
L 308.254488 75.375974 
L 308.977305 67.157716 
L 309.700122 65.543328 
L 310.422938 83.50491 
L 311.145755 96.462357 
L 311.868572 79.245444 
L 312.591388 76.775346 
L 313.314205 97.506076 
L 314.037022 77.586199 
L 314.759838 77.570257 
L 315.482655 62.207856 
L 316.205472 69.139933 
L 316.928288 65.962313 
L 317.651105 66.971089 
L 318.373922 78.412162 
L 319.096738 69.522798 
L 319.819555 119.548184 
L 320.542372 79.665087 
L 321.265188 80.146468 
L 321.988005 73.754338 
L 322.710822 73.804825 
L 323.433638 90.591529 
L 324.156455 72.065051 
L 324.879271 76.10564 
L 325.602088 68.558876 
L 326.324905 81.011474 
L 327.047721 76.012594 
L 327.770538 95.811159 
L 328.493355 65.653587 
L 329.216171 62.328364 
L 329.938988 77.895068 
L 330.661805 76.245959 
L 331.384621 80.372475 
L 332.107438 98.265408 
L 332.107438 98.265408 
" clip-path="url(#p5f2f37ad7b)" style="fill: none; stroke: #1f77b4; stroke-width: 1.5; stroke-linecap: square"/>
   </g>
   <g id="line2d_64">
    <path d="M 101.528926 87.226532 
L 102.251742 64.94786 
L 102.974559 69.172924 
L 103.697376 108.741572 
L 104.420192 73.646769 
L 105.143009 114.103043 
L 105.865826 107.652609 
L 106.588642 73.690642 
L 107.311459 77.469933 
L 108.034275 83.110381 
L 108.757092 97.067111 
L 109.479909 70.945301 
L 110.202725 75.769209 
L 110.925542 64.821609 
L 111.648359 72.149339 
L 112.371175 65.710448 
L 113.093992 77.696293 
L 113.816809 82.027319 
L 114.539625 84.834948 
L 115.262442 84.404496 
L 115.985259 59.314234 
L 116.708075 70.713447 
L 117.430892 76.950496 
L 118.153709 68.787317 
L 118.876525 80.093702 
L 119.599342 78.649161 
L 120.322159 65.678117 
L 121.044975 77.71146 
L 121.767792 76.368148 
L 122.490609 63.903263 
L 123.213425 64.829955 
L 124.659059 84.253874 
L 125.381875 98.531132 
L 126.104692 67.001962 
L 126.827508 75.871846 
L 127.550325 70.101972 
L 128.273142 81.291267 
L 128.995958 70.474736 
L 129.718775 68.644666 
L 130.441592 84.9396 
L 131.164408 67.33999 
L 131.887225 78.763532 
L 132.610042 77.248311 
L 133.332858 70.415473 
L 134.055675 102.685283 
L 134.778492 74.326038 
L 135.501308 67.705289 
L 136.224125 91.87382 
L 136.946942 89.070204 
L 137.669758 64.105381 
L 138.392575 106.165069 
L 139.115392 78.683572 
L 139.838208 130.963212 
L 140.561025 74.278484 
L 141.283842 81.810617 
L 142.006658 100.005812 
L 142.729475 70.801889 
L 143.452292 65.020629 
L 144.175108 67.041121 
L 144.897925 84.015874 
L 145.620741 118.212386 
L 146.343558 83.803902 
L 147.066375 76.716747 
L 147.789191 80.048536 
L 148.512008 75.516358 
L 149.234825 60.363869 
L 149.957641 71.536319 
L 150.680458 80.284028 
L 151.403275 77.873117 
L 152.126091 104.293858 
L 152.848908 91.294538 
L 153.571725 86.755201 
L 154.294541 63.647457 
L 155.017358 83.177211 
L 155.740175 67.478159 
L 156.462991 76.204083 
L 157.185808 80.349234 
L 157.908625 89.190392 
L 158.631441 80.458471 
L 159.354258 74.954744 
L 160.077075 114.276016 
L 160.799891 81.98284 
L 161.522708 92.356539 
L 162.245524 91.225275 
L 162.968341 73.995025 
L 163.691158 88.907668 
L 165.136791 63.385733 
L 165.859608 79.090084 
L 166.582424 70.752127 
L 167.305241 73.414391 
L 168.028058 70.473884 
L 168.750874 104.472024 
L 169.473691 81.170998 
L 170.196508 117.777861 
L 170.919324 67.371661 
L 171.642141 73.677175 
L 172.364958 86.52312 
L 173.087774 84.900061 
L 173.810591 85.905269 
L 174.533408 104.183306 
L 175.256224 87.299076 
L 175.979041 98.663403 
L 176.701858 95.301501 
L 177.424674 71.235687 
L 178.147491 69.918611 
L 178.870308 75.222848 
L 179.593124 79.147368 
L 180.315941 86.058085 
L 181.038757 99.915265 
L 181.761574 79.882304 
L 182.484391 76.697669 
L 183.207207 75.005253 
L 183.930024 90.077501 
L 184.652841 82.789451 
L 185.375657 108.995462 
L 186.098474 75.521067 
L 186.821291 62.056273 
L 187.544107 89.669772 
L 188.266924 72.759168 
L 188.989741 72.25728 
L 189.712557 82.753692 
L 190.435374 90.216143 
L 191.158191 84.972887 
L 191.881007 77.489226 
L 192.603824 78.252728 
L 193.326641 76.477857 
L 194.049457 102.853137 
L 194.772274 76.398916 
L 195.495091 83.256793 
L 196.217907 78.828992 
L 196.940724 92.575554 
L 197.663541 102.970913 
L 198.386357 102.079636 
L 199.109174 74.930908 
L 199.83199 101.438593 
L 200.554807 63.582094 
L 201.277624 97.475448 
L 202.00044 89.715743 
L 203.446074 66.327125 
L 204.16889 121.96407 
L 204.891707 82.479362 
L 205.614524 80.289275 
L 206.33734 75.555302 
L 207.060157 72.867448 
L 207.782974 102.684552 
L 208.50579 68.436012 
L 209.228607 71.640503 
L 209.951424 65.219327 
L 210.67424 86.820347 
L 211.397057 66.265275 
L 212.119874 74.19298 
L 212.84269 84.297274 
L 213.565507 70.994861 
L 214.288324 71.896799 
L 215.01114 55.8 
L 216.456773 87.010694 
L 217.17959 72.292156 
L 217.902407 96.121567 
L 218.625223 68.696646 
L 219.34804 78.061795 
L 220.070857 57.888865 
L 220.793673 91.886568 
L 221.51649 70.067197 
L 222.962123 88.561711 
L 223.68494 80.494476 
L 224.407757 90.65338 
L 225.130573 64.139025 
L 225.85339 73.663032 
L 226.576207 70.93682 
L 227.299023 79.170386 
L 228.02184 70.49398 
L 228.744657 74.907272 
L 229.467473 57.698756 
L 230.19029 85.21972 
L 230.913107 81.488217 
L 231.635923 87.452029 
L 232.35874 107.157676 
L 233.081557 77.180242 
L 233.804373 56.032164 
L 234.52719 69.558291 
L 235.250006 66.620767 
L 235.972823 74.901746 
L 236.69564 88.053909 
L 237.418456 76.788223 
L 238.141273 71.746817 
L 238.86409 82.066485 
L 239.586906 72.197649 
L 240.309723 78.078892 
L 241.03254 105.416959 
L 241.755356 89.264664 
L 242.478173 66.130565 
L 243.20099 95.54464 
L 243.923806 76.833571 
L 244.646623 97.949405 
L 245.36944 66.178315 
L 246.092256 89.886284 
L 246.815073 63.923918 
L 247.53789 74.539334 
L 248.983523 99.823974 
L 249.70634 70.423729 
L 250.429156 78.01556 
L 251.151973 72.749435 
L 251.87479 87.445301 
L 252.597606 90.72463 
L 253.320423 83.852687 
L 254.043239 74.121041 
L 254.766056 61.689023 
L 255.488873 78.62847 
L 256.211689 82.802676 
L 256.934506 65.435061 
L 257.657323 96.117062 
L 258.380139 68.47767 
L 259.102956 69.328681 
L 259.825773 86.813044 
L 260.548589 78.224134 
L 261.271406 65.202673 
L 261.994223 101.470584 
L 262.717039 77.870646 
L 263.439856 70.549965 
L 264.162673 83.201661 
L 264.885489 80.730066 
L 265.608306 70.677846 
L 266.331123 104.443666 
L 267.053939 70.791029 
L 267.776756 111.585431 
L 268.499573 74.535433 
L 269.222389 90.458224 
L 269.945206 72.143004 
L 270.668022 88.300033 
L 271.390839 74.606882 
L 272.113656 93.958912 
L 272.836472 85.192796 
L 273.559289 88.531536 
L 274.282106 71.111646 
L 275.004922 81.764216 
L 275.727739 97.27562 
L 276.450556 83.703342 
L 277.173372 80.543242 
L 277.896189 85.535623 
L 278.619006 66.405664 
L 279.341822 79.519913 
L 280.064639 67.955136 
L 280.787456 71.722875 
L 281.510272 72.645946 
L 282.233089 75.077826 
L 282.955906 82.15572 
L 283.678722 74.117705 
L 284.401539 80.46944 
L 285.124356 70.118867 
L 285.847172 73.015433 
L 286.569989 85.958842 
L 287.292806 71.59254 
L 288.015622 67.732952 
L 288.738439 75.399126 
L 289.461255 62.812114 
L 290.184072 61.636664 
L 290.906889 68.161153 
L 291.629705 85.544163 
L 292.352522 79.938546 
L 293.075339 69.659034 
L 293.798155 66.261039 
L 294.520972 74.482088 
L 295.243789 80.638399 
L 295.966605 61.231292 
L 296.689422 60.885907 
L 297.412239 76.813967 
L 298.135055 99.795715 
L 298.857872 78.895478 
L 299.580689 73.486438 
L 301.026322 90.628008 
L 301.749139 85.601322 
L 302.471955 73.220043 
L 303.194772 86.215686 
L 303.917589 95.093438 
L 304.640405 118.450291 
L 305.363222 83.14921 
L 306.086038 95.588341 
L 306.808855 76.56797 
L 307.531672 67.639999 
L 308.254488 75.365163 
L 308.977305 67.170525 
L 309.700122 65.541114 
L 310.422938 83.548079 
L 311.145755 96.454364 
L 311.868572 79.225114 
L 312.591388 76.794165 
L 313.314205 97.608535 
L 314.037022 77.58826 
L 314.759838 77.608947 
L 315.482655 62.2014 
L 316.205472 69.154403 
L 316.928288 65.969038 
L 317.651105 66.975748 
L 318.373922 78.413426 
L 319.096738 69.542321 
L 319.819555 119.835394 
L 320.542372 79.693266 
L 321.265188 80.126649 
L 321.988005 73.751618 
L 322.710822 73.811096 
L 323.433638 90.56078 
L 324.156455 72.049118 
L 324.879271 76.119703 
L 325.602088 68.554093 
L 326.324905 81.05559 
L 327.047721 76.014192 
L 327.770538 95.779916 
L 328.493355 65.644203 
L 329.216171 62.323646 
L 329.938988 77.894045 
L 330.661805 76.286326 
L 331.384621 80.307582 
L 332.107438 98.202549 
L 332.107438 98.202549 
" clip-path="url(#p5f2f37ad7b)" style="fill: none; stroke: #ff7f0e; stroke-width: 1.5; stroke-linecap: square"/>
   </g>
   <g id="line2d_65">
    <path d="M 101.528926 212.401176 
L 102.251742 229.021098 
L 102.974559 261.781323 
L 103.697376 191.839843 
L 104.420192 237.882278 
L 105.143009 220.575381 
L 105.865826 287.425261 
L 107.311459 198.823703 
L 108.034275 233.815023 
L 108.757092 212.282574 
L 109.479909 219.166403 
L 110.202725 215.085374 
L 110.925542 220.709298 
L 111.648359 244.719923 
L 112.371175 244.016586 
L 113.093992 230.748487 
L 113.816809 241.104122 
L 114.539625 224.075891 
L 115.262442 215.728753 
L 115.985259 225.622563 
L 116.708075 246.819393 
L 117.430892 232.740968 
L 118.153709 222.998104 
L 118.876525 204.853225 
L 119.599342 226.745305 
L 120.322159 206.546374 
L 121.044975 219.077442 
L 121.767792 218.56899 
L 122.490609 243.691083 
L 123.213425 242.370716 
L 123.936242 209.90966 
L 124.659059 247.20915 
L 125.381875 223.129675 
L 126.104692 264.466191 
L 126.827508 240.504571 
L 127.550325 200.952452 
L 128.273142 250.078946 
L 128.995958 243.646267 
L 129.718775 206.235172 
L 130.441592 216.856766 
L 131.164408 202.8623 
L 131.887225 253.124294 
L 132.610042 204.356898 
L 133.332858 204.043122 
L 134.055675 213.22951 
L 134.778492 225.663382 
L 135.501308 221.89621 
L 136.224125 267.923824 
L 136.946942 193.552635 
L 137.669758 254.291758 
L 138.392575 182.481459 
L 139.115392 237.11249 
L 139.838208 224.139261 
L 140.561025 188.850287 
L 141.283842 232.473711 
L 142.006658 219.402805 
L 142.729475 254.435722 
L 143.452292 235.163414 
L 144.175108 245.515442 
L 144.897925 212.622541 
L 146.343558 269.678503 
L 147.066375 253.401923 
L 147.789191 225.116806 
L 148.512008 210.616551 
L 149.234825 229.081172 
L 150.680458 202.438908 
L 151.403275 215.700774 
L 152.126091 224.305786 
L 152.848908 237.041266 
L 153.571725 217.053274 
L 154.294541 240.621608 
L 155.017358 235.652701 
L 155.740175 231.514018 
L 156.462991 205.732005 
L 157.185808 208.270869 
L 157.908625 205.683345 
L 158.631441 207.320099 
L 159.354258 196.36383 
L 160.077075 208.729787 
L 160.799891 208.235381 
L 161.522708 209.548757 
L 162.245524 263.204444 
L 162.968341 226.901705 
L 163.691158 228.438647 
L 164.413974 290.884208 
L 165.859608 195.224971 
L 166.582424 209.76813 
L 167.305241 251.04623 
L 168.028058 191.52468 
L 168.750874 215.636894 
L 169.473691 225.996375 
L 170.196508 222.553134 
L 170.919324 239.595785 
L 171.642141 236.998222 
L 172.364958 204.804664 
L 173.087774 213.170882 
L 173.810591 252.336632 
L 174.533408 221.408967 
L 175.256224 228.094318 
L 175.979041 236.822491 
L 176.701858 222.312505 
L 177.424674 223.189595 
L 178.147491 239.22405 
L 178.870308 238.320455 
L 179.593124 253.918074 
L 180.315941 201.586973 
L 181.038757 188.083943 
L 181.761574 234.334541 
L 182.484391 245.278962 
L 183.207207 232.636371 
L 183.930024 273.652636 
L 184.652841 187.941006 
L 185.375657 207.329818 
L 186.098474 211.883185 
L 186.821291 224.40548 
L 187.544107 199.162597 
L 188.266924 240.538265 
L 188.989741 234.110712 
L 189.712557 307.8 
L 190.435374 202.134705 
L 191.158191 259.635761 
L 191.881007 228.529317 
L 192.603824 264.297906 
L 193.326641 226.66534 
L 194.049457 206.433192 
L 194.772274 250.416227 
L 195.495091 214.014431 
L 196.217907 220.734967 
L 196.940724 246.329583 
L 197.663541 222.622469 
L 198.386357 205.82567 
L 199.109174 216.634283 
L 199.83199 216.95461 
L 200.554807 247.431145 
L 201.277624 233.542553 
L 202.00044 251.352062 
L 202.723257 207.616734 
L 203.446074 227.493616 
L 204.16889 213.767609 
L 204.891707 226.37809 
L 205.614524 241.273064 
L 206.33734 238.485842 
L 207.060157 203.566495 
L 207.782974 252.211527 
L 208.50579 203.45759 
L 209.228607 215.61757 
L 209.951424 250.251688 
L 210.67424 201.355161 
L 212.119874 226.230116 
L 212.84269 209.221073 
L 213.565507 226.124998 
L 214.288324 204.709384 
L 215.01114 219.710804 
L 215.733957 227.521643 
L 216.456773 232.560252 
L 217.17959 208.725189 
L 217.902407 259.043986 
L 218.625223 231.752261 
L 219.34804 217.052741 
L 220.070857 207.576255 
L 220.793673 266.439477 
L 221.51649 206.628948 
L 222.239307 214.350833 
L 222.962123 207.755703 
L 223.68494 196.480758 
L 225.130573 258.575419 
L 225.85339 228.811665 
L 226.576207 204.725928 
L 227.299023 206.987371 
L 228.02184 231.125305 
L 228.744657 216.455504 
L 229.467473 253.463012 
L 230.19029 200.165964 
L 230.913107 213.334436 
L 231.635923 216.906737 
L 232.35874 232.109208 
L 233.081557 210.795042 
L 233.804373 249.148184 
L 234.52719 242.2859 
L 235.250006 222.265457 
L 235.972823 215.118719 
L 236.69564 249.464348 
L 237.418456 257.917285 
L 238.141273 220.048381 
L 238.86409 221.271155 
L 239.586906 241.636078 
L 240.309723 223.232338 
L 241.03254 223.164861 
L 241.755356 229.26347 
L 242.478173 259.999827 
L 243.20099 264.208765 
L 243.923806 220.52865 
L 244.646623 204.481874 
L 245.36944 227.968198 
L 246.092256 213.832748 
L 246.815073 201.969428 
L 247.53789 234.31782 
L 248.260706 254.090306 
L 248.983523 190.53857 
L 249.70634 209.334183 
L 250.429156 247.522921 
L 251.151973 231.943934 
L 251.87479 227.97715 
L 252.597606 198.511945 
L 254.043239 244.026956 
L 254.766056 232.138817 
L 255.488873 253.6526 
L 256.211689 212.350668 
L 256.934506 225.221575 
L 257.657323 199.722109 
L 258.380139 259.512865 
L 259.102956 208.767217 
L 259.825773 226.245841 
L 260.548589 235.612244 
L 261.271406 216.922969 
L 261.994223 230.97604 
L 262.717039 217.15109 
L 263.439856 222.951174 
L 264.885489 221.992823 
L 265.608306 203.845607 
L 266.331123 207.280283 
L 267.053939 215.909426 
L 267.776756 199.520444 
L 268.499573 232.754398 
L 269.222389 223.88278 
L 269.945206 224.984284 
L 270.668022 218.373764 
L 271.390839 201.141311 
L 272.113656 196.200122 
L 272.836472 239.221996 
L 273.559289 210.477329 
L 274.282106 212.735355 
L 275.004922 236.799803 
L 275.727739 195.029454 
L 276.450556 227.735391 
L 277.173372 210.365622 
L 277.896189 255.253886 
L 278.619006 215.208234 
L 279.341822 206.923787 
L 280.064639 223.508358 
L 280.787456 217.173679 
L 281.510272 260.733513 
L 282.233089 221.697262 
L 282.955906 193.474587 
L 283.678722 210.073321 
L 284.401539 194.481338 
L 285.124356 216.972155 
L 285.847172 212.948636 
L 286.569989 230.754895 
L 287.292806 229.69244 
L 288.015622 233.864327 
L 288.738439 194.613869 
L 289.461255 213.123676 
L 290.184072 238.348453 
L 290.906889 212.121481 
L 291.629705 208.884526 
L 292.352522 232.670248 
L 293.075339 232.134517 
L 293.798155 236.459461 
L 294.520972 269.462475 
L 295.243789 220.229721 
L 295.966605 218.806612 
L 296.689422 249.028601 
L 297.412239 205.333507 
L 298.135055 251.487636 
L 298.857872 204.088416 
L 299.580689 210.95707 
L 300.303505 227.817824 
L 301.026322 239.97024 
L 301.749139 206.703104 
L 302.471955 261.230033 
L 303.194772 226.582423 
L 304.640405 194.926848 
L 305.363222 214.862126 
L 306.086038 219.581758 
L 306.808855 245.00372 
L 307.531672 222.545641 
L 308.254488 225.671296 
L 308.977305 214.07666 
L 309.700122 247.525577 
L 310.422938 206.162321 
L 311.145755 252.79389 
L 311.868572 216.917309 
L 312.591388 216.010433 
L 313.314205 202.92216 
L 314.037022 260.999177 
L 314.759838 202.413752 
L 315.482655 222.809508 
L 316.205472 213.623434 
L 316.928288 225.753911 
L 317.651105 234.098487 
L 318.373922 271.597867 
L 319.096738 208.02488 
L 319.819555 204.460357 
L 320.542372 210.837754 
L 321.265188 218.327293 
L 321.988005 251.629443 
L 323.433638 219.990796 
L 324.156455 214.608719 
L 324.879271 221.158467 
L 325.602088 235.151807 
L 326.324905 203.235715 
L 327.047721 264.522135 
L 327.770538 224.891645 
L 328.493355 218.779431 
L 329.216171 229.195288 
L 329.938988 275.305462 
L 330.661805 200.242592 
L 331.384621 194.831018 
L 332.107438 213.360748 
L 332.107438 213.360748 
" clip-path="url(#p5f2f37ad7b)" style="fill: none; stroke: #2ca02c; stroke-width: 1.5; stroke-linecap: square"/>
   </g>
   <g id="patch_3">
    <path d="M 90 320.4 
L 90 43.2 
" style="fill: none; stroke: #000000; stroke-width: 0.8; stroke-linejoin: miter; stroke-linecap: square"/>
   </g>
   <g id="patch_4">
    <path d="M 343.636364 320.4 
L 343.636364 43.2 
" style="fill: none; stroke: #000000; stroke-width: 0.8; stroke-linejoin: miter; stroke-linecap: square"/>
   </g>
   <g id="patch_5">
    <path d="M 90 320.4 
L 343.636364 320.4 
" style="fill: none; stroke: #000000; stroke-width: 0.8; stroke-linejoin: miter; stroke-linecap: square"/>
   </g>
   <g id="patch_6">
    <path d="M 90 43.2 
L 343.636364 43.2 
" style="fill: none; stroke: #000000; stroke-width: 0.8; stroke-linejoin: miter; stroke-linecap: square"/>
   </g>
   <g id="text_15">
    <!-- $y = |A^H x| + w[n]$ and $y_{rec} = |A^H x_{rec}|$ -->
    <g transform="translate(114.638182 37.2) scale(0.12 -0.12)">
     <defs>
      <path id="DejaVuSans-Oblique-79" d="M 1588 -325 
Q 1188 -997 936 -1164 
Q 684 -1331 294 -1331 
L -159 -1331 
L -63 -850 
L 269 -850 
Q 509 -850 678 -719 
Q 847 -588 1056 -206 
L 1234 128 
L 459 3500 
L 1069 3500 
L 1650 819 
L 3256 3500 
L 3859 3500 
L 1588 -325 
z
" transform="scale(0.015625)"/>
      <path id="DejaVuSans-3d" d="M 678 2906 
L 4684 2906 
L 4684 2381 
L 678 2381 
L 678 2906 
z
M 678 1631 
L 4684 1631 
L 4684 1100 
L 678 1100 
L 678 1631 
z
" transform="scale(0.015625)"/>
      <path id="DejaVuSans-7c" d="M 1344 4891 
L 1344 -1509 
L 813 -1509 
L 813 4891 
L 1344 4891 
z
" transform="scale(0.015625)"/>
      <path id="DejaVuSans-Oblique-41" d="M 2356 4666 
L 3072 4666 
L 3938 0 
L 3278 0 
L 3084 1197 
L 984 1197 
L 325 0 
L -341 0 
L 2356 4666 
z
M 2584 4044 
L 1275 1722 
L 2988 1722 
L 2584 4044 
z
" transform="scale(0.015625)"/>
      <path id="DejaVuSans-Oblique-48" d="M 1081 4666 
L 1716 4666 
L 1344 2753 
L 3634 2753 
L 4006 4666 
L 4641 4666 
L 3731 0 
L 3097 0 
L 3531 2222 
L 1241 2222 
L 806 0 
L 172 0 
L 1081 4666 
z
" transform="scale(0.015625)"/>
      <path id="DejaVuSans-Oblique-78" d="M 3841 3500 
L 2234 1784 
L 3219 0 
L 2559 0 
L 1819 1388 
L 531 0 
L -166 0 
L 1556 1844 
L 641 3500 
L 1300 3500 
L 1972 2234 
L 3144 3500 
L 3841 3500 
z
" transform="scale(0.015625)"/>
      <path id="DejaVuSans-2b" d="M 2944 4013 
L 2944 2272 
L 4684 2272 
L 4684 1741 
L 2944 1741 
L 2944 0 
L 2419 0 
L 2419 1741 
L 678 1741 
L 678 2272 
L 2419 2272 
L 2419 4013 
L 2944 4013 
z
" transform="scale(0.015625)"/>
      <path id="DejaVuSans-Oblique-77" d="M 544 3500 
L 1113 3500 
L 1259 684 
L 2566 3500 
L 3231 3500 
L 3425 684 
L 4666 3500 
L 5241 3500 
L 3641 0 
L 2969 0 
L 2797 2900 
L 1459 0 
L 781 0 
L 544 3500 
z
" transform="scale(0.015625)"/>
      <path id="DejaVuSans-5b" d="M 550 4863 
L 1875 4863 
L 1875 4416 
L 1125 4416 
L 1125 -397 
L 1875 -397 
L 1875 -844 
L 550 -844 
L 550 4863 
z
" transform="scale(0.015625)"/>
      <path id="DejaVuSans-Oblique-6e" d="M 3566 2113 
L 3156 0 
L 2578 0 
L 2988 2091 
Q 3016 2238 3031 2350 
Q 3047 2463 3047 2528 
Q 3047 2791 2881 2937 
Q 2716 3084 2419 3084 
Q 1956 3084 1622 2776 
Q 1288 2469 1184 1941 
L 800 0 
L 225 0 
L 903 3500 
L 1478 3500 
L 1363 2950 
Q 1603 3253 1940 3418 
Q 2278 3584 2650 3584 
Q 3113 3584 3367 3334 
Q 3622 3084 3622 2631 
Q 3622 2519 3608 2391 
Q 3594 2263 3566 2113 
z
" transform="scale(0.015625)"/>
      <path id="DejaVuSans-5d" d="M 1947 4863 
L 1947 -844 
L 622 -844 
L 622 -397 
L 1369 -397 
L 1369 4416 
L 622 4416 
L 622 4863 
L 1947 4863 
z
" transform="scale(0.015625)"/>
      <path id="DejaVuSans-20" transform="scale(0.015625)"/>
      <path id="DejaVuSans-61" d="M 2194 1759 
Q 1497 1759 1228 1600 
Q 959 1441 959 1056 
Q 959 750 1161 570 
Q 1363 391 1709 391 
Q 2188 391 2477 730 
Q 2766 1069 2766 1631 
L 2766 1759 
L 2194 1759 
z
M 3341 1997 
L 3341 0 
L 2766 0 
L 2766 531 
Q 2569 213 2275 61 
Q 1981 -91 1556 -91 
Q 1019 -91 701 211 
Q 384 513 384 1019 
Q 384 1609 779 1909 
Q 1175 2209 1959 2209 
L 2766 2209 
L 2766 2266 
Q 2766 2663 2505 2880 
Q 2244 3097 1772 3097 
Q 1472 3097 1187 3025 
Q 903 2953 641 2809 
L 641 3341 
Q 956 3463 1253 3523 
Q 1550 3584 1831 3584 
Q 2591 3584 2966 3190 
Q 3341 2797 3341 1997 
z
" transform="scale(0.015625)"/>
      <path id="DejaVuSans-6e" d="M 3513 2113 
L 3513 0 
L 2938 0 
L 2938 2094 
Q 2938 2591 2744 2837 
Q 2550 3084 2163 3084 
Q 1697 3084 1428 2787 
Q 1159 2491 1159 1978 
L 1159 0 
L 581 0 
L 581 3500 
L 1159 3500 
L 1159 2956 
Q 1366 3272 1645 3428 
Q 1925 3584 2291 3584 
Q 2894 3584 3203 3211 
Q 3513 2838 3513 2113 
z
" transform="scale(0.015625)"/>
      <path id="DejaVuSans-64" d="M 2906 2969 
L 2906 4863 
L 3481 4863 
L 3481 0 
L 2906 0 
L 2906 525 
Q 2725 213 2448 61 
Q 2172 -91 1784 -91 
Q 1150 -91 751 415 
Q 353 922 353 1747 
Q 353 2572 751 3078 
Q 1150 3584 1784 3584 
Q 2172 3584 2448 3432 
Q 2725 3281 2906 2969 
z
M 947 1747 
Q 947 1113 1208 752 
Q 1469 391 1925 391 
Q 2381 391 2643 752 
Q 2906 1113 2906 1747 
Q 2906 2381 2643 2742 
Q 2381 3103 1925 3103 
Q 1469 3103 1208 2742 
Q 947 2381 947 1747 
z
" transform="scale(0.015625)"/>
      <path id="DejaVuSans-Oblique-72" d="M 2853 2969 
Q 2766 3016 2653 3041 
Q 2541 3066 2413 3066 
Q 1953 3066 1609 2717 
Q 1266 2369 1153 1784 
L 800 0 
L 225 0 
L 909 3500 
L 1484 3500 
L 1375 2956 
Q 1603 3259 1920 3421 
Q 2238 3584 2597 3584 
Q 2691 3584 2781 3573 
Q 2872 3563 2963 3538 
L 2853 2969 
z
" transform="scale(0.015625)"/>
      <path id="DejaVuSans-Oblique-65" d="M 3078 2063 
Q 3088 2113 3092 2166 
Q 3097 2219 3097 2272 
Q 3097 2653 2873 2875 
Q 2650 3097 2266 3097 
Q 1838 3097 1509 2826 
Q 1181 2556 1013 2059 
L 3078 2063 
z
M 3578 1613 
L 903 1613 
Q 884 1494 878 1425 
Q 872 1356 872 1306 
Q 872 872 1139 634 
Q 1406 397 1894 397 
Q 2269 397 2603 481 
Q 2938 566 3225 728 
L 3116 159 
Q 2806 34 2476 -28 
Q 2147 -91 1806 -91 
Q 1078 -91 686 257 
Q 294 606 294 1247 
Q 294 1794 489 2264 
Q 684 2734 1063 3103 
Q 1306 3334 1642 3459 
Q 1978 3584 2356 3584 
Q 2950 3584 3301 3228 
Q 3653 2872 3653 2272 
Q 3653 2128 3634 1964 
Q 3616 1800 3578 1613 
z
" transform="scale(0.015625)"/>
      <path id="DejaVuSans-Oblique-63" d="M 3431 3366 
L 3316 2797 
Q 3109 2947 2876 3022 
Q 2644 3097 2394 3097 
Q 2119 3097 1870 3000 
Q 1622 2903 1453 2725 
Q 1184 2453 1037 2087 
Q 891 1722 891 1331 
Q 891 859 1127 628 
Q 1363 397 1844 397 
Q 2081 397 2348 469 
Q 2616 541 2906 684 
L 2797 116 
Q 2547 13 2283 -39 
Q 2019 -91 1741 -91 
Q 1044 -91 669 257 
Q 294 606 294 1253 
Q 294 1797 489 2255 
Q 684 2713 1069 3078 
Q 1331 3328 1684 3456 
Q 2038 3584 2456 3584 
Q 2700 3584 2940 3529 
Q 3181 3475 3431 3366 
z
" transform="scale(0.015625)"/>
     </defs>
     <use xlink:href="#DejaVuSans-Oblique-79" transform="translate(0 0.684375)"/>
     <use xlink:href="#DejaVuSans-3d" transform="translate(78.662109 0.684375)"/>
     <use xlink:href="#DejaVuSans-7c" transform="translate(181.933594 0.684375)"/>
     <use xlink:href="#DejaVuSans-Oblique-41" transform="translate(215.625 0.684375)"/>
     <use xlink:href="#DejaVuSans-Oblique-48" transform="translate(291.049974 38.965625) scale(0.7)"/>
     <use xlink:href="#DejaVuSans-Oblique-78" transform="translate(346.421068 0.684375)"/>
     <use xlink:href="#DejaVuSans-7c" transform="translate(405.600755 0.684375)"/>
     <use xlink:href="#DejaVuSans-2b" transform="translate(458.774583 0.684375)"/>
     <use xlink:href="#DejaVuSans-Oblique-77" transform="translate(562.046068 0.684375)"/>
     <use xlink:href="#DejaVuSans-5b" transform="translate(643.833177 0.684375)"/>
     <use xlink:href="#DejaVuSans-Oblique-6e" transform="translate(682.846849 0.684375)"/>
     <use xlink:href="#DejaVuSans-5d" transform="translate(746.225755 0.684375)"/>
     <use xlink:href="#DejaVuSans-20" transform="translate(785.239427 0.684375)"/>
     <use xlink:href="#DejaVuSans-61" transform="translate(817.026536 0.684375)"/>
     <use xlink:href="#DejaVuSans-6e" transform="translate(878.305833 0.684375)"/>
     <use xlink:href="#DejaVuSans-64" transform="translate(941.68474 0.684375)"/>
     <use xlink:href="#DejaVuSans-20" transform="translate(1005.161302 0.684375)"/>
     <use xlink:href="#DejaVuSans-Oblique-79" transform="translate(1036.948411 0.684375)"/>
     <use xlink:href="#DejaVuSans-Oblique-72" transform="translate(1096.128099 -15.721875) scale(0.7)"/>
     <use xlink:href="#DejaVuSans-Oblique-65" transform="translate(1124.907396 -15.721875) scale(0.7)"/>
     <use xlink:href="#DejaVuSans-Oblique-63" transform="translate(1167.973802 -15.721875) scale(0.7)"/>
     <use xlink:href="#DejaVuSans-3d" transform="translate(1228.676927 0.684375)"/>
     <use xlink:href="#DejaVuSans-7c" transform="translate(1331.948411 0.684375)"/>
     <use xlink:href="#DejaVuSans-Oblique-41" transform="translate(1365.639818 0.684375)"/>
     <use xlink:href="#DejaVuSans-Oblique-48" transform="translate(1441.064792 38.965625) scale(0.7)"/>
     <use xlink:href="#DejaVuSans-Oblique-78" transform="translate(1496.435885 0.684375)"/>
     <use xlink:href="#DejaVuSans-Oblique-72" transform="translate(1555.615573 -15.721875) scale(0.7)"/>
     <use xlink:href="#DejaVuSans-Oblique-65" transform="translate(1584.39487 -15.721875) scale(0.7)"/>
     <use xlink:href="#DejaVuSans-Oblique-63" transform="translate(1627.461276 -15.721875) scale(0.7)"/>
     <use xlink:href="#DejaVuSans-7c" transform="translate(1668.681979 0.684375)"/>
    </g>
   </g>
   <g id="legend_1">
    <g id="patch_7">
     <path d="M 179.718182 315.4 
L 253.918182 315.4 
Q 255.918182 315.4 255.918182 313.4 
L 255.918182 269.903125 
Q 255.918182 267.903125 253.918182 267.903125 
L 179.718182 267.903125 
Q 177.718182 267.903125 177.718182 269.903125 
L 177.718182 313.4 
Q 177.718182 315.4 179.718182 315.4 
z
" style="fill: #ffffff; opacity: 0.8; stroke: #cccccc; stroke-linejoin: miter"/>
    </g>
    <g id="line2d_66">
     <path d="M 181.718182 276.001562 
L 191.718182 276.001562 
L 201.718182 276.001562 
" style="fill: none; stroke: #1f77b4; stroke-width: 1.5; stroke-linecap: square"/>
    </g>
    <g id="text_16">
     <!-- $y$ -->
     <g transform="translate(209.718182 279.501562) scale(0.1 -0.1)">
      <use xlink:href="#DejaVuSans-Oblique-79" transform="translate(0 0.3125)"/>
     </g>
    </g>
    <g id="line2d_67">
     <path d="M 181.718182 290.7 
L 191.718182 290.7 
L 201.718182 290.7 
" style="fill: none; stroke: #ff7f0e; stroke-width: 1.5; stroke-linecap: square"/>
    </g>
    <g id="text_17">
     <!-- $y_{rec}$ -->
     <g transform="translate(209.718182 294.2) scale(0.1 -0.1)">
      <use xlink:href="#DejaVuSans-Oblique-79" transform="translate(0 0.3125)"/>
      <use xlink:href="#DejaVuSans-Oblique-72" transform="translate(59.179688 -16.09375) scale(0.7)"/>
      <use xlink:href="#DejaVuSans-Oblique-65" transform="translate(87.958984 -16.09375) scale(0.7)"/>
      <use xlink:href="#DejaVuSans-Oblique-63" transform="translate(131.025391 -16.09375) scale(0.7)"/>
     </g>
    </g>
    <g id="line2d_68">
     <path d="M 181.718182 305.5 
L 191.718182 305.5 
L 201.718182 305.5 
" style="fill: none; stroke: #2ca02c; stroke-width: 1.5; stroke-linecap: square"/>
    </g>
    <g id="text_18">
     <!-- $|y-y_{rec}|$ -->
     <g transform="translate(209.718182 309) scale(0.1 -0.1)">
      <use xlink:href="#DejaVuSans-7c" transform="translate(0 0.578125)"/>
      <use xlink:href="#DejaVuSans-Oblique-79" transform="translate(33.691406 0.578125)"/>
      <use xlink:href="#DejaVuSans-2212" transform="translate(112.353516 0.578125)"/>
      <use xlink:href="#DejaVuSans-Oblique-79" transform="translate(215.625 0.578125)"/>
      <use xlink:href="#DejaVuSans-Oblique-72" transform="translate(274.804688 -15.828125) scale(0.7)"/>
      <use xlink:href="#DejaVuSans-Oblique-65" transform="translate(303.583984 -15.828125) scale(0.7)"/>
      <use xlink:href="#DejaVuSans-Oblique-63" transform="translate(346.650391 -15.828125) scale(0.7)"/>
      <use xlink:href="#DejaVuSans-7c" transform="translate(387.871094 0.578125)"/>
     </g>
    </g>
   </g>
  </g>
  <g id="axes_2">
   <g id="patch_8">
    <path d="M 394.363636 169.2 
L 648 169.2 
L 648 43.2 
L 394.363636 43.2 
z
" style="fill: #ffffff"/>
   </g>
   <g id="matplotlib.axis_3">
    <g id="ytick_56">
     <g id="line2d_69">
      <defs>
       <path id="mc75c5300f9" d="M 0 0 
L 3.5 0 
" style="stroke: #000000; stroke-width: 0.8"/>
      </defs>
      <g>
       <use xlink:href="#mc75c5300f9" x="648" y="163.489869" style="stroke: #000000; stroke-width: 0.8"/>
      </g>
     </g>
     <g id="text_19">
      <!-- 0.0 -->
      <g transform="translate(655 167.289088) scale(0.1 -0.1)">
       <defs>
        <path id="DejaVuSans-2e" d="M 684 794 
L 1344 794 
L 1344 0 
L 684 0 
L 684 794 
z
" transform="scale(0.015625)"/>
       </defs>
       <use xlink:href="#DejaVuSans-30"/>
       <use xlink:href="#DejaVuSans-2e" x="63.623047"/>
       <use xlink:href="#DejaVuSans-30" x="95.410156"/>
      </g>
     </g>
    </g>
    <g id="ytick_57">
     <g id="line2d_70">
      <g>
       <use xlink:href="#mc75c5300f9" x="648" y="128.37213" style="stroke: #000000; stroke-width: 0.8"/>
      </g>
     </g>
     <g id="text_20">
      <!-- 0.1 -->
      <g transform="translate(655 132.171349) scale(0.1 -0.1)">
       <use xlink:href="#DejaVuSans-30"/>
       <use xlink:href="#DejaVuSans-2e" x="63.623047"/>
       <use xlink:href="#DejaVuSans-31" x="95.410156"/>
      </g>
     </g>
    </g>
    <g id="ytick_58">
     <g id="line2d_71">
      <g>
       <use xlink:href="#mc75c5300f9" x="648" y="93.254391" style="stroke: #000000; stroke-width: 0.8"/>
      </g>
     </g>
     <g id="text_21">
      <!-- 0.2 -->
      <g transform="translate(655 97.05361) scale(0.1 -0.1)">
       <use xlink:href="#DejaVuSans-30"/>
       <use xlink:href="#DejaVuSans-2e" x="63.623047"/>
       <use xlink:href="#DejaVuSans-32" x="95.410156"/>
      </g>
     </g>
    </g>
    <g id="ytick_59">
     <g id="line2d_72">
      <g>
       <use xlink:href="#mc75c5300f9" x="648" y="58.136652" style="stroke: #000000; stroke-width: 0.8"/>
      </g>
     </g>
     <g id="text_22">
      <!-- 0.3 -->
      <g transform="translate(655 61.935871) scale(0.1 -0.1)">
       <use xlink:href="#DejaVuSans-30"/>
       <use xlink:href="#DejaVuSans-2e" x="63.623047"/>
       <use xlink:href="#DejaVuSans-33" x="95.410156"/>
      </g>
     </g>
    </g>
   </g>
   <g id="line2d_73">
    <path d="M 405.892562 133.767023 
L 413.330579 49.013595 
L 420.768595 85.267958 
L 428.206612 99.680025 
L 435.644628 126.300793 
L 443.082645 63.290343 
L 450.520661 130.677654 
L 457.958678 115.261266 
L 465.396694 117.246001 
L 472.834711 134.574175 
L 480.272727 72.430648 
L 487.710744 104.590947 
L 495.14876 125.563149 
L 502.586777 112.350757 
L 510.024793 100.39768 
L 517.46281 66.872417 
L 524.900826 97.280259 
L 532.338843 101.885122 
L 539.77686 100.522038 
L 547.214876 92.698472 
L 554.652893 105.113314 
L 562.090909 110.942933 
L 569.528926 128.884084 
L 576.966942 116.540825 
L 584.404959 77.505933 
L 591.842975 135.487111 
L 599.280992 78.014859 
L 606.719008 115.821299 
L 614.157025 103.088342 
L 621.595041 133.635603 
L 629.033058 127.356263 
L 636.471074 120.018989 
" clip-path="url(#p7b87b378c0)" style="fill: none; stroke: #1f77b4; stroke-width: 1.5; stroke-linecap: square"/>
   </g>
   <g id="line2d_74">
    <path d="M 405.892562 133.62507 
L 413.330579 48.927273 
L 420.768595 85.221667 
L 428.206612 99.605947 
L 435.644628 126.250219 
L 443.082645 63.197183 
L 450.520661 130.708994 
L 457.958678 115.121092 
L 465.396694 117.360857 
L 472.834711 134.497186 
L 480.272727 72.441514 
L 487.710744 104.479354 
L 495.14876 125.494078 
L 502.586777 112.357647 
L 510.024793 100.496999 
L 517.46281 66.817367 
L 524.900826 97.250268 
L 532.338843 101.936366 
L 539.77686 100.572824 
L 547.214876 92.722637 
L 554.652893 105.015312 
L 562.090909 111.016271 
L 569.528926 128.897185 
L 576.966942 116.562352 
L 584.404959 77.438606 
L 591.842975 135.438673 
L 599.280992 78.029697 
L 606.719008 115.729705 
L 614.157025 103.016887 
L 621.595041 133.569301 
L 629.033058 127.304311 
L 636.471074 119.900945 
" clip-path="url(#p7b87b378c0)" style="fill: none; stroke: #ff7f0e; stroke-width: 1.5; stroke-linecap: square"/>
   </g>
   <g id="line2d_75">
    <path d="M 405.892562 163.344616 
L 413.330579 163.398813 
L 420.768595 163.427289 
L 428.206612 163.324112 
L 435.644628 163.437331 
L 443.082645 163.369177 
L 450.520661 163.417194 
L 457.958678 163.332357 
L 465.396694 163.375013 
L 472.834711 163.406797 
L 480.272727 163.342492 
L 487.710744 163.358913 
L 495.14876 163.417651 
L 502.586777 163.415073 
L 510.024793 163.346237 
L 517.46281 163.415716 
L 524.900826 163.442975 
L 532.338843 163.43516 
L 539.77686 163.43908 
L 547.214876 163.307591 
L 554.652893 163.368427 
L 562.090909 163.398099 
L 569.528926 163.472727 
L 576.966942 163.462049 
L 584.404959 163.381062 
L 591.842975 163.441422 
L 599.280992 163.447814 
L 606.719008 163.385173 
L 614.157025 163.375137 
L 621.595041 163.42259 
L 629.033058 163.40801 
L 636.471074 163.328998 
" clip-path="url(#p7b87b378c0)" style="fill: none; stroke: #2ca02c; stroke-width: 1.5; stroke-linecap: square"/>
   </g>
   <g id="patch_9">
    <path d="M 394.363636 169.2 
L 394.363636 43.2 
" style="fill: none; stroke: #000000; stroke-width: 0.8; stroke-linejoin: miter; stroke-linecap: square"/>
   </g>
   <g id="patch_10">
    <path d="M 648 169.2 
L 648 43.2 
" style="fill: none; stroke: #000000; stroke-width: 0.8; stroke-linejoin: miter; stroke-linecap: square"/>
   </g>
   <g id="patch_11">
    <path d="M 394.363636 169.2 
L 648 169.2 
" style="fill: none; stroke: #000000; stroke-width: 0.8; stroke-linejoin: miter; stroke-linecap: square"/>
   </g>
   <g id="patch_12">
    <path d="M 394.363636 43.2 
L 648 43.2 
" style="fill: none; stroke: #000000; stroke-width: 0.8; stroke-linejoin: miter; stroke-linecap: square"/>
   </g>
   <g id="text_23">
    <!-- $|x|$ and recovered $|x_{rec}|$ -->
    <g transform="translate(451.821818 37.2) scale(0.12 -0.12)">
     <defs>
      <path id="DejaVuSans-72" d="M 2631 2963 
Q 2534 3019 2420 3045 
Q 2306 3072 2169 3072 
Q 1681 3072 1420 2755 
Q 1159 2438 1159 1844 
L 1159 0 
L 581 0 
L 581 3500 
L 1159 3500 
L 1159 2956 
Q 1341 3275 1631 3429 
Q 1922 3584 2338 3584 
Q 2397 3584 2469 3576 
Q 2541 3569 2628 3553 
L 2631 2963 
z
" transform="scale(0.015625)"/>
      <path id="DejaVuSans-65" d="M 3597 1894 
L 3597 1613 
L 953 1613 
Q 991 1019 1311 708 
Q 1631 397 2203 397 
Q 2534 397 2845 478 
Q 3156 559 3463 722 
L 3463 178 
Q 3153 47 2828 -22 
Q 2503 -91 2169 -91 
Q 1331 -91 842 396 
Q 353 884 353 1716 
Q 353 2575 817 3079 
Q 1281 3584 2069 3584 
Q 2775 3584 3186 3129 
Q 3597 2675 3597 1894 
z
M 3022 2063 
Q 3016 2534 2758 2815 
Q 2500 3097 2075 3097 
Q 1594 3097 1305 2825 
Q 1016 2553 972 2059 
L 3022 2063 
z
" transform="scale(0.015625)"/>
      <path id="DejaVuSans-63" d="M 3122 3366 
L 3122 2828 
Q 2878 2963 2633 3030 
Q 2388 3097 2138 3097 
Q 1578 3097 1268 2742 
Q 959 2388 959 1747 
Q 959 1106 1268 751 
Q 1578 397 2138 397 
Q 2388 397 2633 464 
Q 2878 531 3122 666 
L 3122 134 
Q 2881 22 2623 -34 
Q 2366 -91 2075 -91 
Q 1284 -91 818 406 
Q 353 903 353 1747 
Q 353 2603 823 3093 
Q 1294 3584 2113 3584 
Q 2378 3584 2631 3529 
Q 2884 3475 3122 3366 
z
" transform="scale(0.015625)"/>
      <path id="DejaVuSans-6f" d="M 1959 3097 
Q 1497 3097 1228 2736 
Q 959 2375 959 1747 
Q 959 1119 1226 758 
Q 1494 397 1959 397 
Q 2419 397 2687 759 
Q 2956 1122 2956 1747 
Q 2956 2369 2687 2733 
Q 2419 3097 1959 3097 
z
M 1959 3584 
Q 2709 3584 3137 3096 
Q 3566 2609 3566 1747 
Q 3566 888 3137 398 
Q 2709 -91 1959 -91 
Q 1206 -91 779 398 
Q 353 888 353 1747 
Q 353 2609 779 3096 
Q 1206 3584 1959 3584 
z
" transform="scale(0.015625)"/>
      <path id="DejaVuSans-76" d="M 191 3500 
L 800 3500 
L 1894 563 
L 2988 3500 
L 3597 3500 
L 2284 0 
L 1503 0 
L 191 3500 
z
" transform="scale(0.015625)"/>
     </defs>
     <use xlink:href="#DejaVuSans-7c" transform="translate(0 0.578125)"/>
     <use xlink:href="#DejaVuSans-Oblique-78" transform="translate(33.691406 0.578125)"/>
     <use xlink:href="#DejaVuSans-7c" transform="translate(92.871094 0.578125)"/>
     <use xlink:href="#DejaVuSans-20" transform="translate(126.5625 0.578125)"/>
     <use xlink:href="#DejaVuSans-61" transform="translate(158.349609 0.578125)"/>
     <use xlink:href="#DejaVuSans-6e" transform="translate(219.628906 0.578125)"/>
     <use xlink:href="#DejaVuSans-64" transform="translate(283.007812 0.578125)"/>
     <use xlink:href="#DejaVuSans-20" transform="translate(346.484375 0.578125)"/>
     <use xlink:href="#DejaVuSans-72" transform="translate(378.271484 0.578125)"/>
     <use xlink:href="#DejaVuSans-65" transform="translate(419.384766 0.578125)"/>
     <use xlink:href="#DejaVuSans-63" transform="translate(480.908203 0.578125)"/>
     <use xlink:href="#DejaVuSans-6f" transform="translate(535.888672 0.578125)"/>
     <use xlink:href="#DejaVuSans-76" transform="translate(597.070312 0.578125)"/>
     <use xlink:href="#DejaVuSans-65" transform="translate(656.25 0.578125)"/>
     <use xlink:href="#DejaVuSans-72" transform="translate(717.773438 0.578125)"/>
     <use xlink:href="#DejaVuSans-65" transform="translate(758.886719 0.578125)"/>
     <use xlink:href="#DejaVuSans-64" transform="translate(820.410156 0.578125)"/>
     <use xlink:href="#DejaVuSans-20" transform="translate(883.886719 0.578125)"/>
     <use xlink:href="#DejaVuSans-7c" transform="translate(915.673828 0.578125)"/>
     <use xlink:href="#DejaVuSans-Oblique-78" transform="translate(949.365234 0.578125)"/>
     <use xlink:href="#DejaVuSans-Oblique-72" transform="translate(1008.544922 -15.828125) scale(0.7)"/>
     <use xlink:href="#DejaVuSans-Oblique-65" transform="translate(1037.324219 -15.828125) scale(0.7)"/>
     <use xlink:href="#DejaVuSans-Oblique-63" transform="translate(1080.390625 -15.828125) scale(0.7)"/>
     <use xlink:href="#DejaVuSans-7c" transform="translate(1121.611328 0.578125)"/>
    </g>
   </g>
   <g id="legend_2">
    <g id="patch_13">
     <path d="M 547.198437 95.834375 
L 641 95.834375 
Q 643 95.834375 643 93.834375 
L 643 50.2 
Q 643 48.2 641 48.2 
L 547.198437 48.2 
Q 545.198437 48.2 545.198437 50.2 
L 545.198437 93.834375 
Q 545.198437 95.834375 547.198437 95.834375 
z
" style="fill: #ffffff; opacity: 0.8; stroke: #cccccc; stroke-linejoin: miter"/>
    </g>
    <g id="line2d_76">
     <path d="M 549.198437 56.298438 
L 559.198437 56.298438 
L 569.198437 56.298438 
" style="fill: none; stroke: #1f77b4; stroke-width: 1.5; stroke-linecap: square"/>
    </g>
    <g id="text_24">
     <!-- x -->
     <g transform="translate(577.198437 59.798438) scale(0.1 -0.1)">
      <defs>
       <path id="DejaVuSans-78" d="M 3513 3500 
L 2247 1797 
L 3578 0 
L 2900 0 
L 1881 1375 
L 863 0 
L 184 0 
L 1544 1831 
L 300 3500 
L 978 3500 
L 1906 2253 
L 2834 3500 
L 3513 3500 
z
" transform="scale(0.015625)"/>
      </defs>
      <use xlink:href="#DejaVuSans-78"/>
     </g>
    </g>
    <g id="line2d_77">
     <path d="M 549.198437 70.976563 
L 559.198437 70.976563 
L 569.198437 70.976563 
" style="fill: none; stroke: #ff7f0e; stroke-width: 1.5; stroke-linecap: square"/>
    </g>
    <g id="text_25">
     <!-- x_{rec} -->
     <g transform="translate(577.198437 74.476563) scale(0.1 -0.1)">
      <defs>
       <path id="DejaVuSans-5f" d="M 3263 -1063 
L 3263 -1509 
L -63 -1509 
L -63 -1063 
L 3263 -1063 
z
" transform="scale(0.015625)"/>
       <path id="DejaVuSans-7b" d="M 3272 -594 
L 3272 -1044 
L 3078 -1044 
Q 2300 -1044 2036 -812 
Q 1772 -581 1772 109 
L 1772 856 
Q 1772 1328 1603 1509 
Q 1434 1691 991 1691 
L 800 1691 
L 800 2138 
L 991 2138 
Q 1438 2138 1605 2317 
Q 1772 2497 1772 2963 
L 1772 3713 
Q 1772 4403 2036 4633 
Q 2300 4863 3078 4863 
L 3272 4863 
L 3272 4416 
L 3059 4416 
Q 2619 4416 2484 4278 
Q 2350 4141 2350 3700 
L 2350 2925 
Q 2350 2434 2208 2212 
Q 2066 1991 1722 1913 
Q 2069 1828 2209 1606 
Q 2350 1384 2350 897 
L 2350 122 
Q 2350 -319 2484 -456 
Q 2619 -594 3059 -594 
L 3272 -594 
z
" transform="scale(0.015625)"/>
       <path id="DejaVuSans-7d" d="M 800 -594 
L 1019 -594 
Q 1456 -594 1589 -459 
Q 1722 -325 1722 122 
L 1722 897 
Q 1722 1384 1862 1606 
Q 2003 1828 2350 1913 
Q 2003 1991 1862 2212 
Q 1722 2434 1722 2925 
L 1722 3700 
Q 1722 4144 1589 4280 
Q 1456 4416 1019 4416 
L 800 4416 
L 800 4863 
L 997 4863 
Q 1775 4863 2036 4633 
Q 2297 4403 2297 3713 
L 2297 2963 
Q 2297 2497 2465 2317 
Q 2634 2138 3078 2138 
L 3272 2138 
L 3272 1691 
L 3078 1691 
Q 2634 1691 2465 1509 
Q 2297 1328 2297 856 
L 2297 109 
Q 2297 -581 2036 -812 
Q 1775 -1044 997 -1044 
L 800 -1044 
L 800 -594 
z
" transform="scale(0.015625)"/>
      </defs>
      <use xlink:href="#DejaVuSans-78"/>
      <use xlink:href="#DejaVuSans-5f" x="59.179688"/>
      <use xlink:href="#DejaVuSans-7b" x="109.179688"/>
      <use xlink:href="#DejaVuSans-72" x="172.802734"/>
      <use xlink:href="#DejaVuSans-65" x="211.666016"/>
      <use xlink:href="#DejaVuSans-63" x="273.189453"/>
      <use xlink:href="#DejaVuSans-7d" x="328.169922"/>
     </g>
    </g>
    <g id="line2d_78">
     <path d="M 549.198437 85.976563 
L 559.198437 85.976563 
L 569.198437 85.976563 
" style="fill: none; stroke: #2ca02c; stroke-width: 1.5; stroke-linecap: square"/>
    </g>
    <g id="text_26">
     <!-- |x - x_{rec}| -->
     <g transform="translate(577.198437 89.476563) scale(0.1 -0.1)">
      <defs>
       <path id="DejaVuSans-2d" d="M 313 2009 
L 1997 2009 
L 1997 1497 
L 313 1497 
L 313 2009 
z
" transform="scale(0.015625)"/>
      </defs>
      <use xlink:href="#DejaVuSans-7c"/>
      <use xlink:href="#DejaVuSans-78" x="33.691406"/>
      <use xlink:href="#DejaVuSans-20" x="92.871094"/>
      <use xlink:href="#DejaVuSans-2d" x="124.658203"/>
      <use xlink:href="#DejaVuSans-20" x="160.742188"/>
      <use xlink:href="#DejaVuSans-78" x="192.529297"/>
      <use xlink:href="#DejaVuSans-5f" x="251.708984"/>
      <use xlink:href="#DejaVuSans-7b" x="301.708984"/>
      <use xlink:href="#DejaVuSans-72" x="365.332031"/>
      <use xlink:href="#DejaVuSans-65" x="404.195312"/>
      <use xlink:href="#DejaVuSans-63" x="465.71875"/>
      <use xlink:href="#DejaVuSans-7d" x="520.699219"/>
      <use xlink:href="#DejaVuSans-7c" x="584.322266"/>
     </g>
    </g>
   </g>
  </g>
  <g id="axes_3">
   <g id="patch_14">
    <path d="M 394.363636 320.4 
L 648 320.4 
L 648 194.4 
L 394.363636 194.4 
z
" style="fill: #ffffff"/>
   </g>
   <g id="matplotlib.axis_4">
    <g id="xtick_8">
     <g id="line2d_79">
      <g>
       <use xlink:href="#mfe2204f90a" x="405.892562" y="320.4" style="stroke: #000000; stroke-width: 0.8"/>
      </g>
     </g>
     <g id="text_27">
      <!-- 0 -->
      <g transform="translate(402.711312 334.998438) scale(0.1 -0.1)">
       <use xlink:href="#DejaVuSans-30"/>
      </g>
     </g>
    </g>
    <g id="xtick_9">
     <g id="line2d_80">
      <g>
       <use xlink:href="#mfe2204f90a" x="443.082645" y="320.4" style="stroke: #000000; stroke-width: 0.8"/>
      </g>
     </g>
     <g id="text_28">
      <!-- 5 -->
      <g transform="translate(439.901395 334.998438) scale(0.1 -0.1)">
       <use xlink:href="#DejaVuSans-35"/>
      </g>
     </g>
    </g>
    <g id="xtick_10">
     <g id="line2d_81">
      <g>
       <use xlink:href="#mfe2204f90a" x="480.272727" y="320.4" style="stroke: #000000; stroke-width: 0.8"/>
      </g>
     </g>
     <g id="text_29">
      <!-- 10 -->
      <g transform="translate(473.910227 334.998438) scale(0.1 -0.1)">
       <use xlink:href="#DejaVuSans-31"/>
       <use xlink:href="#DejaVuSans-30" x="63.623047"/>
      </g>
     </g>
    </g>
    <g id="xtick_11">
     <g id="line2d_82">
      <g>
       <use xlink:href="#mfe2204f90a" x="517.46281" y="320.4" style="stroke: #000000; stroke-width: 0.8"/>
      </g>
     </g>
     <g id="text_30">
      <!-- 15 -->
      <g transform="translate(511.10031 334.998438) scale(0.1 -0.1)">
       <use xlink:href="#DejaVuSans-31"/>
       <use xlink:href="#DejaVuSans-35" x="63.623047"/>
      </g>
     </g>
    </g>
    <g id="xtick_12">
     <g id="line2d_83">
      <g>
       <use xlink:href="#mfe2204f90a" x="554.652893" y="320.4" style="stroke: #000000; stroke-width: 0.8"/>
      </g>
     </g>
     <g id="text_31">
      <!-- 20 -->
      <g transform="translate(548.290393 334.998438) scale(0.1 -0.1)">
       <use xlink:href="#DejaVuSans-32"/>
       <use xlink:href="#DejaVuSans-30" x="63.623047"/>
      </g>
     </g>
    </g>
    <g id="xtick_13">
     <g id="line2d_84">
      <g>
       <use xlink:href="#mfe2204f90a" x="591.842975" y="320.4" style="stroke: #000000; stroke-width: 0.8"/>
      </g>
     </g>
     <g id="text_32">
      <!-- 25 -->
      <g transform="translate(585.480475 334.998438) scale(0.1 -0.1)">
       <use xlink:href="#DejaVuSans-32"/>
       <use xlink:href="#DejaVuSans-35" x="63.623047"/>
      </g>
     </g>
    </g>
    <g id="xtick_14">
     <g id="line2d_85">
      <g>
       <use xlink:href="#mfe2204f90a" x="629.033058" y="320.4" style="stroke: #000000; stroke-width: 0.8"/>
      </g>
     </g>
     <g id="text_33">
      <!-- 30 -->
      <g transform="translate(622.670558 334.998438) scale(0.1 -0.1)">
       <use xlink:href="#DejaVuSans-33"/>
       <use xlink:href="#DejaVuSans-30" x="63.623047"/>
      </g>
     </g>
    </g>
    <g id="text_34">
     <!-- N -->
     <g transform="translate(517.441193 348.676562) scale(0.1 -0.1)">
      <defs>
       <path id="DejaVuSans-4e" d="M 628 4666 
L 1478 4666 
L 3547 763 
L 3547 4666 
L 4159 4666 
L 4159 0 
L 3309 0 
L 1241 3903 
L 1241 0 
L 628 0 
L 628 4666 
z
" transform="scale(0.015625)"/>
      </defs>
      <use xlink:href="#DejaVuSans-4e"/>
     </g>
    </g>
   </g>
   <g id="matplotlib.axis_5">
    <g id="ytick_60">
     <g id="line2d_86">
      <g>
       <use xlink:href="#mc75c5300f9" x="648" y="303.117375" style="stroke: #000000; stroke-width: 0.8"/>
      </g>
     </g>
     <g id="text_35">
      <!-- 0.002 -->
      <g transform="translate(655 306.916593) scale(0.1 -0.1)">
       <use xlink:href="#DejaVuSans-2212"/>
       <use xlink:href="#DejaVuSans-30" x="83.789062"/>
       <use xlink:href="#DejaVuSans-2e" x="147.412109"/>
       <use xlink:href="#DejaVuSans-30" x="179.199219"/>
       <use xlink:href="#DejaVuSans-30" x="242.822266"/>
       <use xlink:href="#DejaVuSans-32" x="306.445312"/>
      </g>
     </g>
    </g>
    <g id="ytick_61">
     <g id="line2d_87">
      <g>
       <use xlink:href="#mc75c5300f9" x="648" y="280.494969" style="stroke: #000000; stroke-width: 0.8"/>
      </g>
     </g>
     <g id="text_36">
      <!-- 0.001 -->
      <g transform="translate(655 284.294188) scale(0.1 -0.1)">
       <use xlink:href="#DejaVuSans-2212"/>
       <use xlink:href="#DejaVuSans-30" x="83.789062"/>
       <use xlink:href="#DejaVuSans-2e" x="147.412109"/>
       <use xlink:href="#DejaVuSans-30" x="179.199219"/>
       <use xlink:href="#DejaVuSans-30" x="242.822266"/>
       <use xlink:href="#DejaVuSans-31" x="306.445312"/>
      </g>
     </g>
    </g>
    <g id="ytick_62">
     <g id="line2d_88">
      <g>
       <use xlink:href="#mc75c5300f9" x="648" y="257.872563" style="stroke: #000000; stroke-width: 0.8"/>
      </g>
     </g>
     <g id="text_37">
      <!-- 0.000 -->
      <g transform="translate(655 261.671782) scale(0.1 -0.1)">
       <use xlink:href="#DejaVuSans-30"/>
       <use xlink:href="#DejaVuSans-2e" x="63.623047"/>
       <use xlink:href="#DejaVuSans-30" x="95.410156"/>
       <use xlink:href="#DejaVuSans-30" x="159.033203"/>
       <use xlink:href="#DejaVuSans-30" x="222.65625"/>
      </g>
     </g>
    </g>
    <g id="ytick_63">
     <g id="line2d_89">
      <g>
       <use xlink:href="#mc75c5300f9" x="648" y="235.250157" style="stroke: #000000; stroke-width: 0.8"/>
      </g>
     </g>
     <g id="text_38">
      <!-- 0.001 -->
      <g transform="translate(655 239.049376) scale(0.1 -0.1)">
       <use xlink:href="#DejaVuSans-30"/>
       <use xlink:href="#DejaVuSans-2e" x="63.623047"/>
       <use xlink:href="#DejaVuSans-30" x="95.410156"/>
       <use xlink:href="#DejaVuSans-30" x="159.033203"/>
       <use xlink:href="#DejaVuSans-31" x="222.65625"/>
      </g>
     </g>
    </g>
    <g id="ytick_64">
     <g id="line2d_90">
      <g>
       <use xlink:href="#mc75c5300f9" x="648" y="212.627751" style="stroke: #000000; stroke-width: 0.8"/>
      </g>
     </g>
     <g id="text_39">
      <!-- 0.002 -->
      <g transform="translate(655 216.42697) scale(0.1 -0.1)">
       <use xlink:href="#DejaVuSans-30"/>
       <use xlink:href="#DejaVuSans-2e" x="63.623047"/>
       <use xlink:href="#DejaVuSans-30" x="95.410156"/>
       <use xlink:href="#DejaVuSans-30" x="159.033203"/>
       <use xlink:href="#DejaVuSans-32" x="222.65625"/>
      </g>
     </g>
    </g>
   </g>
   <g id="line2d_91">
    <path d="M 405.892562 281.248763 
L 413.330579 252.148758 
L 420.768595 270.048005 
L 428.206612 310.412537 
L 435.644628 266.524538 
L 443.082645 240.556407 
L 450.520661 303.101285 
L 457.958678 291.522821 
L 465.396694 258.087115 
L 472.834711 233.49319 
L 480.272727 221.356118 
L 487.710744 284.169919 
L 495.14876 245.306345 
L 502.586777 224.923683 
L 510.024793 295.1058 
L 517.46281 246.243588 
L 524.900826 245.55782 
L 532.338843 250.833424 
L 539.77686 257.658011 
L 547.214876 200.127273 
L 554.652893 285.642532 
L 562.090909 234.106415 
L 569.528926 265.100762 
L 576.966942 266.366338 
L 584.404959 280.352116 
L 591.842975 257.086022 
L 599.280992 247.457019 
L 606.719008 281.917111 
L 614.157025 291.472338 
L 621.595041 249.222933 
L 629.033058 218.29516 
L 636.471074 314.672727 
" clip-path="url(#pb63994feb8)" style="fill: none; stroke: #1f77b4; stroke-width: 1.5; stroke-linecap: square"/>
   </g>
   <g id="patch_15">
    <path d="M 394.363636 320.4 
L 394.363636 194.4 
" style="fill: none; stroke: #000000; stroke-width: 0.8; stroke-linejoin: miter; stroke-linecap: square"/>
   </g>
   <g id="patch_16">
    <path d="M 648 320.4 
L 648 194.4 
" style="fill: none; stroke: #000000; stroke-width: 0.8; stroke-linejoin: miter; stroke-linecap: square"/>
   </g>
   <g id="patch_17">
    <path d="M 394.363636 320.4 
L 648 320.4 
" style="fill: none; stroke: #000000; stroke-width: 0.8; stroke-linejoin: miter; stroke-linecap: square"/>
   </g>
   <g id="patch_18">
    <path d="M 394.363636 194.4 
L 648 194.4 
" style="fill: none; stroke: #000000; stroke-width: 0.8; stroke-linejoin: miter; stroke-linecap: square"/>
   </g>
   <g id="text_40">
    <!-- $ \angle (x \odot x_{rec}^*)$ -->
    <g transform="translate(489.861818 188.4) scale(0.12 -0.12)">
     <defs>
      <path id="DejaVuSans-2220" d="M 5028 631 
L 5028 0 
L 547 0 
L 3525 4666 
L 4281 4666 
L 1716 631 
L 5028 631 
z
" transform="scale(0.015625)"/>
      <path id="DejaVuSans-28" d="M 1984 4856 
Q 1566 4138 1362 3434 
Q 1159 2731 1159 2009 
Q 1159 1288 1364 580 
Q 1569 -128 1984 -844 
L 1484 -844 
Q 1016 -109 783 600 
Q 550 1309 550 2009 
Q 550 2706 781 3412 
Q 1013 4119 1484 4856 
L 1984 4856 
z
" transform="scale(0.015625)"/>
      <path id="DejaVuSans-2299" d="M 2350 2403 
L 3013 2403 
L 3013 1609 
L 2350 1609 
L 2350 2403 
z
M 3306 3522 
Q 3016 3644 2681 3644 
Q 2347 3644 2056 3522 
Q 1769 3400 1531 3163 
Q 1291 2922 1172 2634 
Q 1053 2347 1053 2006 
Q 1053 1675 1172 1387 
Q 1291 1100 1531 859 
Q 1769 622 2056 500 
Q 2347 378 2681 378 
Q 3016 378 3306 500 
Q 3594 622 3831 859 
Q 4072 1100 4190 1387 
Q 4309 1675 4309 2006 
Q 4309 2347 4190 2634 
Q 4072 2922 3831 3163 
Q 3594 3400 3306 3522 
z
M 1878 3956 
Q 2250 4113 2681 4113 
Q 3113 4113 3484 3956 
Q 3856 3800 4163 3494 
Q 4472 3184 4625 2813 
Q 4778 2444 4778 2006 
Q 4778 1578 4625 1206 
Q 4472 838 4163 528 
Q 3856 222 3484 65 
Q 3113 -91 2681 -91 
Q 2250 -91 1878 65 
Q 1506 222 1200 528 
Q 891 838 738 1206 
Q 584 1578 584 2006 
Q 584 2444 738 2813 
Q 891 3184 1200 3494 
Q 1506 3800 1878 3956 
z
" transform="scale(0.015625)"/>
      <path id="DejaVuSans-2a" d="M 3009 3897 
L 1888 3291 
L 3009 2681 
L 2828 2375 
L 1778 3009 
L 1778 1831 
L 1422 1831 
L 1422 3009 
L 372 2375 
L 191 2681 
L 1313 3291 
L 191 3897 
L 372 4206 
L 1422 3572 
L 1422 4750 
L 1778 4750 
L 1778 3572 
L 2828 4206 
L 3009 3897 
z
" transform="scale(0.015625)"/>
      <path id="DejaVuSans-29" d="M 513 4856 
L 1013 4856 
Q 1481 4119 1714 3412 
Q 1947 2706 1947 2009 
Q 1947 1309 1714 600 
Q 1481 -109 1013 -844 
L 513 -844 
Q 928 -128 1133 580 
Q 1338 1288 1338 2009 
Q 1338 2731 1133 3434 
Q 928 4138 513 4856 
z
" transform="scale(0.015625)"/>
     </defs>
     <use xlink:href="#DejaVuSans-2220" transform="translate(0 0.765625)"/>
     <use xlink:href="#DejaVuSans-28" transform="translate(89.648438 0.765625)"/>
     <use xlink:href="#DejaVuSans-Oblique-78" transform="translate(128.662109 0.765625)"/>
     <use xlink:href="#DejaVuSans-2299" transform="translate(207.324219 0.765625)"/>
     <use xlink:href="#DejaVuSans-Oblique-78" transform="translate(310.595703 0.765625)"/>
     <use xlink:href="#DejaVuSans-2a" transform="translate(387.879232 39.046875) scale(0.7)"/>
     <use xlink:href="#DejaVuSans-Oblique-72" transform="translate(369.775391 -26.578125) scale(0.7)"/>
     <use xlink:href="#DejaVuSans-Oblique-65" transform="translate(398.554688 -26.578125) scale(0.7)"/>
     <use xlink:href="#DejaVuSans-Oblique-63" transform="translate(441.621094 -26.578125) scale(0.7)"/>
     <use xlink:href="#DejaVuSans-29" transform="translate(482.841797 0.765625)"/>
    </g>
   </g>
  </g>
 </g>
 <defs>
  <clipPath id="p5f2f37ad7b">
   <rect x="90" y="43.2" width="253.636364" height="277.2"/>
  </clipPath>
  <clipPath id="p7b87b378c0">
   <rect x="394.363636" y="43.2" width="253.636364" height="126"/>
  </clipPath>
  <clipPath id="pb63994feb8">
   <rect x="394.363636" y="194.4" width="253.636364" height="126"/>
  </clipPath>
 </defs>
</svg>
